<svg width="64" height="64" viewBox="0 0 64 64" fill="none" xmlns="http://www.w3.org/2000/svg">
<g clip-path="url(#clip0_12_1489)">
<g opacity="0.25" filter="url(#filter0_f_12_1489)">
<circle cx="32" cy="32" r="12" fill="#9661FF"/>
</g>
<path fill-rule="evenodd" clip-rule="evenodd" d="M35 21.25C34.5858 21.25 34.25 21.5858 34.25 22C34.25 22.4142 34.5858 22.75 35 22.75C36.7949 22.75 38.25 24.2051 38.25 26C38.25 27.7949 36.7949 29.25 35 29.25C34.5858 29.25 34.25 29.5858 34.25 30C34.25 30.4142 34.5858 30.75 35 30.75C37.6234 30.75 39.75 28.6234 39.75 26C39.75 23.3767 37.6234 21.25 35 21.25ZM37 33.25C36.5858 33.25 36.25 33.5858 36.25 34C36.25 34.4142 36.5858 34.75 37 34.75L38.2 34.75C40.4367 34.75 42.25 36.5633 42.25 38.8C42.25 40.1531 41.1531 41.25 39.8 41.25L37 41.25C36.5858 41.25 36.25 41.5858 36.25 42C36.25 42.4142 36.5858 42.75 37 42.75L39.8 42.75C41.9815 42.75 43.75 40.9815 43.75 38.8C43.75 35.7348 41.2652 33.25 38.2 33.25L37 33.25ZM23.25 26C23.25 23.3766 25.3766 21.25 28 21.25C30.6234 21.25 32.75 23.3766 32.75 26C32.75 28.6234 30.6234 30.75 28 30.75C25.3766 30.75 23.25 28.6234 23.25 26ZM25.8 33.25C22.7348 33.25 20.25 35.7348 20.25 38.8C20.25 40.9815 22.0185 42.75 24.2 42.75L31.8 42.75C33.9815 42.75 35.75 40.9815 35.75 38.8C35.75 35.7348 33.2652 33.25 30.2 33.25L25.8 33.25Z" fill="url(#paint0_radial_12_1489)"/>
<g opacity="0.3" filter="url(#filter1_f_12_1489)">
<ellipse cx="32" cy="66" rx="16" ry="8" fill="#9661FF"/>
</g>
</g>
<defs>
<filter id="filter0_f_12_1489" x="-4" y="-4" width="72" height="72" filterUnits="userSpaceOnUse" color-interpolation-filters="sRGB">
<feFlood flood-opacity="0" result="BackgroundImageFix"/>
<feBlend mode="normal" in="SourceGraphic" in2="BackgroundImageFix" result="shape"/>
<feGaussianBlur stdDeviation="12" result="effect1_foregroundBlur_12_1489"/>
</filter>
<filter id="filter1_f_12_1489" x="0" y="42" width="64" height="48" filterUnits="userSpaceOnUse" color-interpolation-filters="sRGB">
<feFlood flood-opacity="0" result="BackgroundImageFix"/>
<feBlend mode="normal" in="SourceGraphic" in2="BackgroundImageFix" result="shape"/>
<feGaussianBlur stdDeviation="8" result="effect1_foregroundBlur_12_1489"/>
</filter>
<radialGradient id="paint0_radial_12_1489" cx="0" cy="0" r="1" gradientUnits="userSpaceOnUse" gradientTransform="translate(32 21.25) rotate(90) scale(21.5 23.5)">
<stop stop-color="#A071FF"/>
<stop offset="1" stop-color="#7631FF"/>
</radialGradient>
<clipPath id="clip0_12_1489">
<path d="M0 8C0 3.58172 3.58172 0 8 0H56C60.4183 0 64 3.58172 64 8V56C64 60.4183 60.4183 64 56 64H8C3.58172 64 0 60.4183 0 56V8Z" fill="white"/>
</clipPath>
</defs>
</svg>
