<svg width="64" height="64" viewBox="0 0 64 64" fill="none" xmlns="http://www.w3.org/2000/svg">
<g clip-path="url(#clip0_10_1356)">
<g opacity="0.25" filter="url(#filter0_f_10_1356)">
<circle cx="32" cy="32" r="12" fill="#FECC44"/>
</g>
<path fill-rule="evenodd" clip-rule="evenodd" d="M29.1343 21.024C29.6964 20.8375 30.3036 20.8375 30.8657 21.024C31.1583 21.121 31.4089 21.2749 31.6567 21.4591C31.8931 21.6348 32.1628 21.866 32.4839 22.1412L32.4839 22.1412L32.503 22.1577C33.0495 22.6261 33.2022 22.7458 33.3557 22.8106C33.5522 22.8937 33.7667 22.9251 33.9788 22.9018C34.1444 22.8836 34.325 22.8126 34.9828 22.5203L37.6954 21.3146C37.9274 21.2115 38.1958 21.2328 38.4087 21.3711C38.6216 21.5095 38.75 21.7461 38.75 22V31.2C38.75 31.2276 38.7724 31.25 38.8 31.25H38.8304C39.3646 31.25 39.8104 31.25 40.1747 31.2797C40.5546 31.3108 40.9112 31.3779 41.2485 31.5497C41.7659 31.8134 42.1866 32.2341 42.4503 32.7515C42.6221 33.0888 42.6892 33.4454 42.7203 33.8253C42.75 34.1896 42.75 34.6354 42.75 35.1696V35.2V40C42.75 41.5188 41.5188 42.75 40 42.75H28.4H28.367C27.2748 42.75 26.4094 42.75 25.7117 42.693C24.9983 42.6347 24.3947 42.5131 23.8435 42.2323C22.9498 41.7769 22.2231 41.0502 21.7677 40.1565C21.4869 39.6053 21.3653 39.0017 21.307 38.2883C21.25 37.5906 21.25 36.7251 21.25 35.633V35.6V22C21.25 21.7461 21.3784 21.5095 21.5913 21.3711C21.8042 21.2328 22.0726 21.2115 22.3046 21.3146L25.0172 22.5203C25.675 22.8126 25.8556 22.8836 26.0212 22.9018C26.2333 22.9251 26.4478 22.8937 26.6443 22.8106C26.7978 22.7458 26.9505 22.6261 27.497 22.1577L27.5161 22.1412L27.5161 22.1412C27.8372 21.8661 28.1069 21.6348 28.3433 21.4591C28.5911 21.2749 28.8417 21.121 29.1343 21.024ZM40 41.25C40.6904 41.25 41.25 40.6904 41.25 40V35.2C41.25 34.6276 41.2494 34.2434 41.2252 33.9475C41.2018 33.6604 41.1599 33.5231 41.1138 33.4325C40.9939 33.1973 40.8027 33.0061 40.5675 32.8862C40.4769 32.8401 40.3396 32.7982 40.0525 32.7748C39.7566 32.7506 39.3724 32.75 38.8 32.75C38.7724 32.75 38.75 32.7724 38.75 32.8V40C38.75 40.6904 39.3096 41.25 40 41.25ZM27 28.25C26.5858 28.25 26.25 28.5858 26.25 29C26.25 29.4142 26.5858 29.75 27 29.75H31C31.4142 29.75 31.75 29.4142 31.75 29C31.75 28.5858 31.4142 28.25 31 28.25H27ZM26.25 33C26.25 32.5858 26.5858 32.25 27 32.25H33C33.4142 32.25 33.75 32.5858 33.75 33C33.75 33.4142 33.4142 33.75 33 33.75H27C26.5858 33.75 26.25 33.4142 26.25 33ZM27 36.25C26.5858 36.25 26.25 36.5858 26.25 37C26.25 37.4142 26.5858 37.75 27 37.75H33C33.4142 37.75 33.75 37.4142 33.75 37C33.75 36.5858 33.4142 36.25 33 36.25H27Z" fill="url(#paint0_radial_10_1356)"/>
<g opacity="0.3" filter="url(#filter1_f_10_1356)">
<ellipse cx="32" cy="66" rx="16" ry="8" fill="#FECC44"/>
</g>
</g>
<defs>
<filter id="filter0_f_10_1356" x="-4" y="-4" width="72" height="72" filterUnits="userSpaceOnUse" color-interpolation-filters="sRGB">
<feFlood flood-opacity="0" result="BackgroundImageFix"/>
<feBlend mode="normal" in="SourceGraphic" in2="BackgroundImageFix" result="shape"/>
<feGaussianBlur stdDeviation="12" result="effect1_foregroundBlur_10_1356"/>
</filter>
<filter id="filter1_f_10_1356" x="0" y="42" width="64" height="48" filterUnits="userSpaceOnUse" color-interpolation-filters="sRGB">
<feFlood flood-opacity="0" result="BackgroundImageFix"/>
<feBlend mode="normal" in="SourceGraphic" in2="BackgroundImageFix" result="shape"/>
<feGaussianBlur stdDeviation="8" result="effect1_foregroundBlur_10_1356"/>
</filter>
<radialGradient id="paint0_radial_10_1356" cx="0" cy="0" r="1" gradientUnits="userSpaceOnUse" gradientTransform="translate(32 20.8842) rotate(90) scale(21.8658 21.5)">
<stop stop-color="#FFCE47"/>
<stop offset="1" stop-color="#E0A500"/>
</radialGradient>
<clipPath id="clip0_10_1356">
<path d="M0 8C0 3.58172 3.58172 0 8 0H56C60.4183 0 64 3.58172 64 8V56C64 60.4183 60.4183 64 56 64H8C3.58172 64 0 60.4183 0 56V8Z" fill="white"/>
</clipPath>
</defs>
</svg>
