<svg width="64" height="64" viewBox="0 0 64 64" fill="none" xmlns="http://www.w3.org/2000/svg">
<g clip-path="url(#clip0_23_1733)">
<g opacity="0.25" filter="url(#filter0_f_23_1733)">
<circle cx="32" cy="32" r="12" fill="url(#paint0_linear_23_1733)"/>
</g>
<path fill-rule="evenodd" clip-rule="evenodd" d="M32.8758 20.8036C32.297 20.695 31.7029 20.695 31.1241 20.8036C30.4691 20.9265 29.8558 21.2333 28.9036 21.7097L28.8024 21.7603L25.3889 23.467L25.354 23.4845L25.3539 23.4845C24.4623 23.9303 23.7464 24.2883 23.2196 24.6146C22.6958 24.9391 22.2322 25.3053 21.9874 25.8216C21.6336 26.5674 21.6336 27.4327 21.9874 28.1785C22.2322 28.6948 22.6958 29.061 23.2196 29.3855C23.7464 29.7118 24.4623 30.0698 25.3539 30.5155L25.3889 30.533L28.8024 32.2398L28.9036 32.2904L28.9036 32.2904C29.8558 32.7668 30.4691 33.0736 31.1241 33.1964C31.7029 33.305 32.297 33.305 32.8758 33.1964C33.5308 33.0736 34.1441 32.7668 35.0963 32.2904L35.1975 32.2398L38.611 30.533L38.6459 30.5156C39.5375 30.0698 40.2535 29.7118 40.7802 29.3855C41.3041 29.061 41.7676 28.6948 42.0125 28.1785C42.3662 27.4327 42.3662 26.5674 42.0125 25.8216C41.7676 25.3053 41.3041 24.9391 40.7802 24.6146C40.2535 24.2883 39.5375 23.9303 38.6459 23.4845L38.6459 23.4845L38.611 23.467L35.1975 21.7603L35.0963 21.7097C34.1441 21.2333 33.5308 20.9265 32.8758 20.8036ZM22.3353 32.3292C21.9648 32.144 21.5143 32.2941 21.3291 32.6646C21.1439 33.0351 21.294 33.4856 21.6645 33.6709L27.3713 36.5242L27.4828 36.58L27.4828 36.58L27.4828 36.58C28.9504 37.314 29.8255 37.7516 30.7552 37.9261C31.5778 38.0804 32.422 38.0804 33.2446 37.9261C34.1743 37.7516 35.0494 37.314 36.5171 36.58L36.6286 36.5242L42.3353 33.6709C42.7058 33.4856 42.856 33.0351 42.6707 32.6646C42.4855 32.2941 42.035 32.144 41.6645 32.3292L35.9578 35.1826C34.3447 35.9891 33.6661 36.3208 32.968 36.4518C32.3282 36.5718 31.6716 36.5718 31.0318 36.4518C30.3337 36.3208 29.6551 35.9891 28.0421 35.1826L22.3353 32.3292ZM22.3353 37.3292C21.9648 37.144 21.5143 37.2941 21.3291 37.6646C21.1439 38.0351 21.294 38.4856 21.6645 38.6709L27.3713 41.5242L27.4828 41.58L27.4828 41.58C28.9504 42.314 29.8255 42.7516 30.7552 42.9261C31.5778 43.0804 32.422 43.0804 33.2446 42.9261C34.1743 42.7516 35.0494 42.314 36.5171 41.58L36.6286 41.5242L42.3353 38.6709C42.7058 38.4856 42.856 38.0351 42.6707 37.6646C42.4855 37.2941 42.035 37.144 41.6645 37.3292L35.9578 40.1826C34.3447 40.9891 33.6661 41.3208 32.968 41.4518C32.3282 41.5718 31.6716 41.5718 31.0318 41.4518C30.3337 41.3208 29.6551 40.9891 28.0421 40.1826L22.3353 37.3292Z" fill="url(#paint1_linear_23_1733)"/>
<g opacity="0.3" filter="url(#filter1_f_23_1733)">
<ellipse cx="32" cy="66" rx="16" ry="8" fill="url(#paint2_linear_23_1733)"/>
</g>
</g>
<defs>
<filter id="filter0_f_23_1733" x="-4" y="-4" width="72" height="72" filterUnits="userSpaceOnUse" color-interpolation-filters="sRGB">
<feFlood flood-opacity="0" result="BackgroundImageFix"/>
<feBlend mode="normal" in="SourceGraphic" in2="BackgroundImageFix" result="shape"/>
<feGaussianBlur stdDeviation="12" result="effect1_foregroundBlur_23_1733"/>
</filter>
<filter id="filter1_f_23_1733" x="0" y="42" width="64" height="48" filterUnits="userSpaceOnUse" color-interpolation-filters="sRGB">
<feFlood flood-opacity="0" result="BackgroundImageFix"/>
<feBlend mode="normal" in="SourceGraphic" in2="BackgroundImageFix" result="shape"/>
<feGaussianBlur stdDeviation="8" result="effect1_foregroundBlur_23_1733"/>
</filter>
<linearGradient id="paint0_linear_23_1733" x1="20" y1="20" x2="45.7557" y2="22.0612" gradientUnits="userSpaceOnUse">
<stop stop-color="#6938EF"/>
<stop offset="1" stop-color="#0046FF"/>
</linearGradient>
<linearGradient id="paint1_linear_23_1733" x1="21.2498" y1="20.7222" x2="44.3336" y2="22.5017" gradientUnits="userSpaceOnUse">
<stop stop-color="#6938EF"/>
<stop offset="1" stop-color="#0046FF"/>
</linearGradient>
<linearGradient id="paint2_linear_23_1733" x1="16" y1="58" x2="49.6976" y2="63.3936" gradientUnits="userSpaceOnUse">
<stop stop-color="#6938EF"/>
<stop offset="1" stop-color="#0046FF"/>
</linearGradient>
<clipPath id="clip0_23_1733">
<path d="M0 8C0 3.58172 3.58172 0 8 0H56C60.4183 0 64 3.58172 64 8V56C64 60.4183 60.4183 64 56 64H8C3.58172 64 0 60.4183 0 56V8Z" fill="white"/>
</clipPath>
</defs>
</svg>
