<svg width="64" height="64" viewBox="0 0 64 64" fill="none" xmlns="http://www.w3.org/2000/svg">
<g clip-path="url(#clip0_14_1589)">
<g opacity="0.25" filter="url(#filter0_f_14_1589)">
<circle cx="32" cy="32" r="12" fill="#F9824E"/>
</g>
<path fill-rule="evenodd" clip-rule="evenodd" d="M24.3693 36.2849C24.1594 35.912 23.7999 35.6388 23.3758 35.581L23.2664 35.5661C22.6696 35.4852 22.2054 35.4222 21.815 35.2358C21.1312 34.9092 20.6124 34.3149 20.3812 33.5933C20.2492 33.1812 20.2496 32.7128 20.2501 32.1105L20.2501 32.0001L20.2501 31.8896C20.2496 31.2873 20.2492 30.8189 20.3812 30.4068C20.6124 29.6852 21.1312 29.0909 21.815 28.7643C22.2054 28.5779 22.6696 28.5149 23.2664 28.434L23.3759 28.4191C23.7998 28.3613 24.1594 28.0881 24.3692 27.7152C24.4031 27.6551 24.4376 27.5954 24.4728 27.5362C24.6918 27.1676 24.7491 26.7187 24.5868 26.3217L24.545 26.2195C24.3166 25.6622 24.139 25.2287 24.1053 24.7974C24.0462 24.0419 24.3015 23.2955 24.8109 22.7345C25.1017 22.4141 25.5076 22.1802 26.0294 21.8795L26.1251 21.8243L26.2208 21.769C26.7421 21.4675 27.1476 21.2329 27.5704 21.1412C28.311 20.9806 29.085 21.1327 29.7098 21.5616C30.0665 21.8065 30.3531 22.1771 30.7215 22.6535L30.7891 22.7408C31.0519 23.08 31.4693 23.2555 31.8983 23.2506C31.9322 23.2502 31.9661 23.25 32.0001 23.25C32.034 23.25 32.0678 23.2502 32.1016 23.2506C32.5307 23.2555 32.9482 23.0799 33.2111 22.7407L33.2787 22.6533C33.6472 22.1769 33.9337 21.8064 34.2904 21.5615C34.9152 21.1326 35.6892 20.9805 36.4298 21.1411C36.8526 21.2328 37.2581 21.4673 37.7795 21.7689L37.8751 21.8242L37.9708 21.8794C38.4926 22.1801 38.8985 22.414 39.1893 22.7343C39.6987 23.2954 39.954 24.0417 39.8949 24.7972C39.8612 25.2286 39.6836 25.662 39.4552 26.2194L39.4134 26.3216C39.2511 26.7186 39.3084 27.1676 39.5275 27.5363C39.5626 27.5955 39.5971 27.6551 39.631 27.7152C39.8408 28.0881 40.2004 28.3613 40.6244 28.4192L40.7338 28.434C41.3307 28.5149 41.7948 28.5779 42.1853 28.7643C42.8691 29.0909 43.3878 29.6852 43.619 30.4068C43.751 30.8189 43.7506 31.2873 43.7502 31.8896L43.7501 32.0001L43.7502 32.1105C43.7506 32.7128 43.751 33.1812 43.619 33.5933C43.3878 34.3149 42.8691 34.9092 42.1853 35.2358C41.7948 35.4222 41.3307 35.4852 40.7338 35.5661L40.6244 35.581C40.2004 35.6388 39.8408 35.912 39.6309 36.285C39.5971 36.345 39.5627 36.4046 39.5275 36.4637C39.3084 36.8324 39.2511 37.2815 39.4134 37.6785L39.4553 37.7807C39.6836 38.338 39.8612 38.7715 39.8949 39.2028C39.954 39.9583 39.6987 40.7047 39.1893 41.2658C38.8985 41.5861 38.4926 41.82 37.9708 42.1207L37.8751 42.1759L37.7795 42.2312C37.2581 42.5327 36.8526 42.7673 36.4298 42.859C35.6892 43.0196 34.9152 42.8675 34.2905 42.4386C33.9338 42.1937 33.6472 41.8232 33.2787 41.3468L33.2111 41.2594C32.9482 40.9201 32.5307 40.7446 32.1016 40.7494C32.0678 40.7498 32.034 40.75 32.0001 40.75C31.9661 40.75 31.9322 40.7498 31.8984 40.7494C31.4693 40.7446 31.0519 40.9201 30.7891 41.2592L30.7215 41.3466C30.353 41.823 30.0664 42.1935 29.7097 42.4384C29.085 42.8673 28.311 43.0194 27.5704 42.8588C27.1476 42.7671 26.7421 42.5326 26.2207 42.231L26.1251 42.1758L26.0294 42.1206C25.5076 41.8198 25.1017 41.5859 24.8109 41.2656C24.3015 40.7046 24.0462 39.9582 24.1053 39.2027C24.139 38.7714 24.3166 38.3379 24.5449 37.7806L24.5868 37.6783C24.7491 37.2814 24.6918 36.8324 24.4727 36.4637C24.4376 36.4046 24.4031 36.345 24.3693 36.2849ZM32.0001 35C33.657 35 35.0001 33.6569 35.0001 32C35.0001 30.3432 33.657 29 32.0001 29C30.3432 29 29.0001 30.3432 29.0001 32C29.0001 33.6569 30.3432 35 32.0001 35Z" fill="url(#paint0_radial_14_1589)"/>
<g opacity="0.3" filter="url(#filter1_f_14_1589)">
<ellipse cx="32" cy="66" rx="16" ry="8" fill="#F9824E"/>
</g>
</g>
<defs>
<filter id="filter0_f_14_1589" x="-4" y="-4" width="72" height="72" filterUnits="userSpaceOnUse" color-interpolation-filters="sRGB">
<feFlood flood-opacity="0" result="BackgroundImageFix"/>
<feBlend mode="normal" in="SourceGraphic" in2="BackgroundImageFix" result="shape"/>
<feGaussianBlur stdDeviation="12" result="effect1_foregroundBlur_14_1589"/>
</filter>
<filter id="filter1_f_14_1589" x="0" y="42" width="64" height="48" filterUnits="userSpaceOnUse" color-interpolation-filters="sRGB">
<feFlood flood-opacity="0" result="BackgroundImageFix"/>
<feBlend mode="normal" in="SourceGraphic" in2="BackgroundImageFix" result="shape"/>
<feGaussianBlur stdDeviation="8" result="effect1_foregroundBlur_14_1589"/>
</filter>
<radialGradient id="paint0_radial_14_1589" cx="0" cy="0" r="1" gradientUnits="userSpaceOnUse" gradientTransform="translate(32.0001 21.0786) rotate(90) scale(21.8428 23.5003)">
<stop stop-color="#F8864E"/>
<stop offset="1" stop-color="#FB6E4B"/>
</radialGradient>
<clipPath id="clip0_14_1589">
<path d="M0 8C0 3.58172 3.58172 0 8 0H56C60.4183 0 64 3.58172 64 8V56C64 60.4183 60.4183 64 56 64H8C3.58172 64 0 60.4183 0 56V8Z" fill="white"/>
</clipPath>
</defs>
</svg>
