<svg width="64" height="64" viewBox="0 0 64 64" fill="none" xmlns="http://www.w3.org/2000/svg">
<g clip-path="url(#clip0_23_1735)">
<g opacity="0.25" filter="url(#filter0_f_23_1735)">
<circle cx="32" cy="32" r="12" fill="url(#paint0_linear_23_1735)"/>
</g>
<path fill-rule="evenodd" clip-rule="evenodd" d="M32 21.25C26.0629 21.25 21.25 26.0629 21.25 32C21.25 37.9371 26.0629 42.75 32 42.75C37.9371 42.75 42.75 37.9371 42.75 32C42.75 26.0629 37.9371 21.25 32 21.25ZM28.2499 29.7434C28.2499 28.3663 29.3662 27.25 30.7433 27.25H31.2499V26.5C31.2499 26.0858 31.5857 25.75 31.9999 25.75C32.4141 25.75 32.7499 26.0858 32.7499 26.5V27.25H32.9999C34.5187 27.25 35.7499 28.4812 35.7499 30C35.7499 30.4142 35.4141 30.75 34.9999 30.75C34.5857 30.75 34.2499 30.4142 34.2499 30C34.2499 29.3096 33.6902 28.75 32.9999 28.75H32.7499V31.4594L34.0449 31.8911C35.0631 32.2305 35.7499 33.1833 35.7499 34.2566C35.7499 35.6337 34.6335 36.75 33.2565 36.75H32.7499V37.5C32.7499 37.9142 32.4141 38.25 31.9999 38.25C31.5857 38.25 31.2499 37.9142 31.2499 37.5V36.75H30.9999C29.4811 36.75 28.2499 35.5188 28.2499 34C28.2499 33.5858 28.5857 33.25 28.9999 33.25C29.4141 33.25 29.7499 33.5858 29.7499 34C29.7499 34.6904 30.3095 35.25 30.9999 35.25H31.2499V32.5406L29.9548 32.1089C28.9366 31.7695 28.2499 30.8167 28.2499 29.7434ZM31.2499 30.9594V28.75H30.7433C30.1946 28.75 29.7499 29.1948 29.7499 29.7434C29.7499 30.171 30.0235 30.5506 30.4291 30.6859L31.2499 30.9594ZM32.7499 33.0406V35.25H33.2565C33.8051 35.25 34.2499 34.8052 34.2499 34.2566C34.2499 33.829 33.9763 33.4494 33.5706 33.3141L32.7499 33.0406Z" fill="url(#paint1_linear_23_1735)"/>
<g opacity="0.3" filter="url(#filter1_f_23_1735)">
<ellipse cx="32" cy="66" rx="16" ry="8" fill="url(#paint2_linear_23_1735)"/>
</g>
</g>
<defs>
<filter id="filter0_f_23_1735" x="-4" y="-4" width="72" height="72" filterUnits="userSpaceOnUse" color-interpolation-filters="sRGB">
<feFlood flood-opacity="0" result="BackgroundImageFix"/>
<feBlend mode="normal" in="SourceGraphic" in2="BackgroundImageFix" result="shape"/>
<feGaussianBlur stdDeviation="12" result="effect1_foregroundBlur_23_1735"/>
</filter>
<filter id="filter1_f_23_1735" x="0" y="42" width="64" height="48" filterUnits="userSpaceOnUse" color-interpolation-filters="sRGB">
<feFlood flood-opacity="0" result="BackgroundImageFix"/>
<feBlend mode="normal" in="SourceGraphic" in2="BackgroundImageFix" result="shape"/>
<feGaussianBlur stdDeviation="8" result="effect1_foregroundBlur_23_1735"/>
</filter>
<linearGradient id="paint0_linear_23_1735" x1="20" y1="20" x2="45.7557" y2="22.0612" gradientUnits="userSpaceOnUse">
<stop stop-color="#6938EF"/>
<stop offset="1" stop-color="#0046FF"/>
</linearGradient>
<linearGradient id="paint1_linear_23_1735" x1="21.25" y1="21.25" x2="44.3229" y2="23.0965" gradientUnits="userSpaceOnUse">
<stop stop-color="#6938EF"/>
<stop offset="1" stop-color="#0046FF"/>
</linearGradient>
<linearGradient id="paint2_linear_23_1735" x1="16" y1="58" x2="49.6976" y2="63.3936" gradientUnits="userSpaceOnUse">
<stop stop-color="#6938EF"/>
<stop offset="1" stop-color="#0046FF"/>
</linearGradient>
<clipPath id="clip0_23_1735">
<path d="M0 8C0 3.58172 3.58172 0 8 0H56C60.4183 0 64 3.58172 64 8V56C64 60.4183 60.4183 64 56 64H8C3.58172 64 0 60.4183 0 56V8Z" fill="white"/>
</clipPath>
</defs>
</svg>
