<svg width="64" height="64" viewBox="0 0 64 64" fill="none" xmlns="http://www.w3.org/2000/svg">
<g clip-path="url(#clip0_23_1732)">
<g opacity="0.25" filter="url(#filter0_f_23_1732)">
<circle cx="32" cy="32" r="12" fill="url(#paint0_linear_23_1732)"/>
</g>
<path fill-rule="evenodd" clip-rule="evenodd" d="M33.6463 21.2729C33.9428 21.2972 34.2377 21.3506 34.5215 21.4952C34.9448 21.711 35.2891 22.0552 35.5048 22.4785C35.6494 22.7623 35.7029 23.0572 35.7271 23.3537C35.75 23.6347 35.75 23.9757 35.75 24.3711L35.75 24.4V26.0059L35.75 26.0684C35.7503 26.3735 35.7506 26.6426 35.6878 26.9039C35.6327 27.1335 35.5418 27.353 35.4184 27.5543C35.278 27.7835 35.0876 27.9735 34.8716 28.1891L34.8274 28.2333L32.5303 30.5303C32.2374 30.8232 31.7626 30.8232 31.4697 30.5303L29.1726 28.2333L29.1284 28.1891L29.1284 28.1891C28.9124 27.9735 28.722 27.7835 28.5816 27.5543C28.4582 27.353 28.3673 27.1335 28.3122 26.9039C28.2494 26.6426 28.2497 26.3735 28.25 26.0684L28.25 26.0059L28.25 24.4L28.25 24.3711V24.3711C28.25 23.9757 28.25 23.6347 28.2729 23.3537C28.2972 23.0572 28.3506 22.7623 28.4952 22.4785C28.711 22.0552 29.0552 21.711 29.4785 21.4952C29.7623 21.3506 30.0572 21.2972 30.3537 21.2729C30.6347 21.25 30.9757 21.25 31.3711 21.25H31.3711H31.4H32.6H32.6289H32.6289C33.0243 21.25 33.3654 21.25 33.6463 21.2729ZM26.0684 28.25H26.0684C26.3735 28.2497 26.6426 28.2494 26.9039 28.3122C27.1335 28.3673 27.353 28.4582 27.5543 28.5816C27.7835 28.722 27.9735 28.9124 28.1891 29.1284L28.1891 29.1284L28.2333 29.1726L30.5303 31.4697C30.8232 31.7626 30.8232 32.2374 30.5303 32.5303L28.2333 34.8274L28.1891 34.8716C27.9735 35.0876 27.7835 35.278 27.5543 35.4184C27.353 35.5418 27.1335 35.6327 26.9039 35.6878C26.6426 35.7506 26.3735 35.7503 26.0684 35.75L26.0059 35.75H24.4L24.3711 35.75C23.9757 35.75 23.6347 35.75 23.3537 35.7271C23.0572 35.7028 22.7623 35.6494 22.4785 35.5048C22.0552 35.2891 21.711 34.9448 21.4952 34.5215C21.3506 34.2377 21.2972 33.9428 21.2729 33.6463C21.25 33.3653 21.25 33.0243 21.25 32.6289V32.6289V32.6V31.4V31.3711V31.3711C21.25 30.9757 21.25 30.6347 21.2729 30.3537C21.2972 30.0572 21.3506 29.7623 21.4952 29.4785C21.711 29.0552 22.0552 28.711 22.4785 28.4952C22.7623 28.3506 23.0572 28.2972 23.3537 28.2729C23.6347 28.25 23.9757 28.25 24.3711 28.25L24.4 28.25H26.0059L26.0684 28.25ZM37.9941 28.25L37.9316 28.25C37.6265 28.2497 37.3574 28.2494 37.0961 28.3122C36.8665 28.3673 36.647 28.4582 36.4457 28.5816C36.2165 28.722 36.0265 28.9124 35.8109 29.1284L35.7667 29.1726L33.4697 31.4697C33.1768 31.7626 33.1768 32.2374 33.4697 32.5303L35.7667 34.8274L35.8109 34.8716L35.8109 34.8716C36.0265 35.0876 36.2165 35.278 36.4457 35.4184C36.647 35.5418 36.8665 35.6327 37.0961 35.6878C37.3574 35.7506 37.6265 35.7503 37.9316 35.75L37.9941 35.75H39.6L39.6289 35.75C40.0243 35.75 40.3653 35.75 40.6463 35.7271C40.9428 35.7028 41.2377 35.6494 41.5215 35.5048C41.9448 35.2891 42.2891 34.9448 42.5048 34.5215C42.6494 34.2377 42.7028 33.9428 42.7271 33.6463C42.75 33.3653 42.75 33.0243 42.75 32.6289V32.6V31.4V31.3711C42.75 30.9757 42.75 30.6347 42.7271 30.3537C42.7028 30.0572 42.6494 29.7623 42.5048 29.4785C42.2891 29.0552 41.9448 28.711 41.5215 28.4952C41.2377 28.3506 40.9428 28.2972 40.6463 28.2729C40.3653 28.25 40.0243 28.25 39.6289 28.25L39.6 28.25H37.9941ZM32.5303 33.4697C32.2374 33.1768 31.7626 33.1768 31.4697 33.4697L29.1726 35.7667L29.1284 35.8109L29.1284 35.8109C28.9124 36.0265 28.722 36.2165 28.5816 36.4457C28.4582 36.647 28.3673 36.8665 28.3122 37.0961C28.2494 37.3574 28.2497 37.6265 28.25 37.9316L28.25 37.9941V39.6L28.25 39.6289V39.6289C28.25 40.0243 28.25 40.3653 28.2729 40.6463C28.2972 40.9428 28.3506 41.2377 28.4952 41.5215C28.711 41.9448 29.0552 42.2891 29.4785 42.5048C29.7623 42.6494 30.0572 42.7029 30.3537 42.7271C30.6347 42.75 30.9757 42.75 31.3711 42.75H31.4H32.6H32.6289C33.0243 42.75 33.3653 42.75 33.6463 42.7271C33.9428 42.7029 34.2377 42.6494 34.5215 42.5048C34.9448 42.2891 35.2891 41.9448 35.5048 41.5215C35.6494 41.2377 35.7028 40.9428 35.7271 40.6463C35.75 40.3653 35.75 40.0243 35.75 39.6289L35.75 39.6V37.9941L35.75 37.9316C35.7503 37.6265 35.7506 37.3574 35.6878 37.0961C35.6327 36.8665 35.5418 36.647 35.4184 36.4457C35.278 36.2165 35.0876 36.0265 34.8716 35.8109L34.8274 35.7667L32.5303 33.4697Z" fill="url(#paint1_linear_23_1732)"/>
<g opacity="0.3" filter="url(#filter1_f_23_1732)">
<ellipse cx="32" cy="66" rx="16" ry="8" fill="url(#paint2_linear_23_1732)"/>
</g>
</g>
<defs>
<filter id="filter0_f_23_1732" x="-4" y="-4" width="72" height="72" filterUnits="userSpaceOnUse" color-interpolation-filters="sRGB">
<feFlood flood-opacity="0" result="BackgroundImageFix"/>
<feBlend mode="normal" in="SourceGraphic" in2="BackgroundImageFix" result="shape"/>
<feGaussianBlur stdDeviation="12" result="effect1_foregroundBlur_23_1732"/>
</filter>
<filter id="filter1_f_23_1732" x="0" y="42" width="64" height="48" filterUnits="userSpaceOnUse" color-interpolation-filters="sRGB">
<feFlood flood-opacity="0" result="BackgroundImageFix"/>
<feBlend mode="normal" in="SourceGraphic" in2="BackgroundImageFix" result="shape"/>
<feGaussianBlur stdDeviation="8" result="effect1_foregroundBlur_23_1732"/>
</filter>
<linearGradient id="paint0_linear_23_1732" x1="20" y1="20" x2="45.7557" y2="22.0612" gradientUnits="userSpaceOnUse">
<stop stop-color="#6938EF"/>
<stop offset="1" stop-color="#0046FF"/>
</linearGradient>
<linearGradient id="paint1_linear_23_1732" x1="21.25" y1="21.25" x2="44.3229" y2="23.0965" gradientUnits="userSpaceOnUse">
<stop stop-color="#6938EF"/>
<stop offset="1" stop-color="#0046FF"/>
</linearGradient>
<linearGradient id="paint2_linear_23_1732" x1="16" y1="58" x2="49.6976" y2="63.3936" gradientUnits="userSpaceOnUse">
<stop stop-color="#6938EF"/>
<stop offset="1" stop-color="#0046FF"/>
</linearGradient>
<clipPath id="clip0_23_1732">
<path d="M0 8C0 3.58172 3.58172 0 8 0H56C60.4183 0 64 3.58172 64 8V56C64 60.4183 60.4183 64 56 64H8C3.58172 64 0 60.4183 0 56V8Z" fill="white"/>
</clipPath>
</defs>
</svg>
