<svg width="64" height="64" viewBox="0 0 64 64" fill="none" xmlns="http://www.w3.org/2000/svg">
<g clip-path="url(#clip0_26_1938)">
<g opacity="0.25" filter="url(#filter0_f_26_1938)">
<circle cx="32" cy="32" r="12" fill="#0046FF"/>
</g>
<path fill-rule="evenodd" clip-rule="evenodd" d="M22.9214 36.1973L22.2409 36.5125L22.2642 36.5628C22.7424 37.5948 23.0155 38.1841 22.7837 38.9906C22.7385 39.148 22.6692 39.2981 22.5734 39.5055C22.5453 39.5665 22.5148 39.6325 22.4819 39.7052C22.3557 39.9844 22.1959 40.3628 22.1612 40.7861C22.0679 41.9222 23.0684 42.8429 24.1929 42.6555L24.0696 41.9157L24.1929 42.6555C24.8285 42.5496 25.3724 42.2688 25.7726 42.0621C25.871 42.0113 25.9606 41.965 26.0409 41.9269C26.4659 41.7249 26.8215 41.6193 27.3538 41.7445C27.4643 41.7705 27.8304 41.8998 28.7237 42.2194L28.9763 41.5132L28.7237 42.2194C29.7221 42.5765 30.786 42.75 32 42.75C37.9371 42.75 42.75 37.9371 42.75 32C42.75 26.0629 37.9371 21.25 32 21.25C26.0629 21.25 21.25 26.0629 21.25 32C21.25 33.6102 21.6048 35.1395 22.2409 36.5125L22.9214 36.1973ZM32 37C32.5523 37 33 36.5523 33 36C33 35.4477 32.5523 35 32 35C31.4477 35 31 35.4477 31 36C31 36.5523 31.4477 37 32 37ZM32 28.75C31.3096 28.75 30.75 29.3096 30.75 30V30.5C30.75 30.9142 30.4142 31.25 30 31.25C29.5858 31.25 29.25 30.9142 29.25 30.5V30C29.25 28.4812 30.4812 27.25 32 27.25C33.5188 27.25 34.75 28.4812 34.75 30V30.1213C34.75 30.8828 34.4475 31.6132 33.909 32.1517L32.5303 33.5303C32.2374 33.8232 31.7626 33.8232 31.4697 33.5303C31.1768 33.2374 31.1768 32.7626 31.4697 32.4697L32.8483 31.091C33.1055 30.8338 33.25 30.485 33.25 30.1213V30C33.25 29.3096 32.6904 28.75 32 28.75Z" fill="url(#paint0_radial_26_1938)"/>
<g opacity="0.3" filter="url(#filter1_f_26_1938)">
<ellipse cx="32" cy="66" rx="16" ry="8" fill="#0046FF"/>
</g>
</g>
<defs>
<filter id="filter0_f_26_1938" x="-4" y="-4" width="72" height="72" filterUnits="userSpaceOnUse" color-interpolation-filters="sRGB">
<feFlood flood-opacity="0" result="BackgroundImageFix"/>
<feBlend mode="normal" in="SourceGraphic" in2="BackgroundImageFix" result="shape"/>
<feGaussianBlur stdDeviation="12" result="effect1_foregroundBlur_26_1938"/>
</filter>
<filter id="filter1_f_26_1938" x="0" y="42" width="64" height="48" filterUnits="userSpaceOnUse" color-interpolation-filters="sRGB">
<feFlood flood-opacity="0" result="BackgroundImageFix"/>
<feBlend mode="normal" in="SourceGraphic" in2="BackgroundImageFix" result="shape"/>
<feGaussianBlur stdDeviation="8" result="effect1_foregroundBlur_26_1938"/>
</filter>
<radialGradient id="paint0_radial_26_1938" cx="0" cy="0" r="1" gradientUnits="userSpaceOnUse" gradientTransform="translate(32 21.25) rotate(90) scale(21.5)">
<stop stop-color="#0046FF"/>
<stop offset="1" stop-color="#0028E1"/>
</radialGradient>
<clipPath id="clip0_26_1938">
<path d="M0 8C0 3.58172 3.58172 0 8 0H56C60.4183 0 64 3.58172 64 8V56C64 60.4183 60.4183 64 56 64H8C3.58172 64 0 60.4183 0 56V8Z" fill="white"/>
</clipPath>
</defs>
</svg>
