<svg width="64" height="64" viewBox="0 0 64 64" fill="none" xmlns="http://www.w3.org/2000/svg">
<g clip-path="url(#clip0_15_1725)">
<g opacity="0.25" filter="url(#filter0_f_15_1725)">
<circle cx="32" cy="32" r="12" fill="#E858FF"/>
</g>
<path fill-rule="evenodd" clip-rule="evenodd" d="M40.5524 27.7992C39.8966 27.7497 39.1586 27.7498 38.4084 27.75L38.2779 27.75H33.0825L32.9628 27.75C31.8523 27.7499 30.8207 27.7497 29.9679 27.8562C29.0222 27.9743 28.0268 28.2494 27.1477 28.9942C26.2686 29.7389 25.8335 30.6755 25.5616 31.589C25.3163 32.4126 25.1469 33.4302 24.9645 34.5256L24.9644 34.5256L24.9448 34.6437L23.7804 41.6301C23.7333 41.9125 23.7411 42.1977 23.7997 42.4713C23.2456 42.3149 22.7603 42.0636 22.3481 41.6514C21.7462 41.0495 21.4873 40.2916 21.3663 39.3915C21.2497 38.5246 21.2497 37.4223 21.2498 36.0547V36.0547V36.0547V36.0546V35.9998V26.944V26.9093V26.9092V26.9092V26.9092C21.2497 26.0305 21.2497 25.3218 21.3002 24.7495C21.3522 24.1597 21.4621 23.6436 21.7252 23.1723C22.064 22.5651 22.5651 22.064 23.1723 21.7252C23.6436 21.4621 24.1597 21.3522 24.7495 21.3002C25.3218 21.2497 26.0305 21.2498 26.9092 21.2498L26.9092 21.2498L26.9093 21.2498L26.944 21.2498H27.7637L27.8076 21.2498C28.1342 21.2497 28.359 21.2497 28.5724 21.2741C29.682 21.4012 30.6772 22.0163 31.2871 22.9519C31.4044 23.1318 31.5049 23.3329 31.6509 23.625L31.6509 23.625L31.6509 23.625L31.6706 23.6644C31.8436 24.0105 31.9044 24.1294 31.969 24.2285C32.3349 24.7898 32.9321 25.1589 33.5978 25.2351C33.7153 25.2486 33.8488 25.2498 34.2358 25.2498H35.9995L36.1153 25.2497C36.9335 25.2495 37.4918 25.2493 37.9706 25.3776C39.1868 25.7036 40.1528 26.6161 40.5524 27.7992ZM42.7371 30.2225C42.2682 29.669 41.6327 29.4465 40.9241 29.3459C40.2484 29.25 39.3823 29.25 38.3348 29.25L38.2779 29.25H33.0825L33.033 29.25H33.033C31.8613 29.25 30.9121 29.25 30.1537 29.3447C29.364 29.4433 28.69 29.6535 28.1172 30.1387C27.5444 30.6239 27.2263 31.2542 26.9992 32.017C26.7811 32.7494 26.6251 33.6857 26.4325 34.8415L26.4325 34.8415L26.4244 34.8903L25.26 41.8767C25.2237 42.0942 25.285 42.3166 25.4275 42.4848C25.57 42.653 25.7793 42.75 25.9998 42.75H35.917H35.9665C37.1382 42.75 38.0874 42.7501 38.8458 42.6554C39.6355 42.5568 40.3095 42.3466 40.8823 41.8614C41.4551 41.3761 41.7732 40.7459 42.0003 39.9831C42.2184 39.2506 42.3744 38.3143 42.567 37.1585L42.5752 37.1097L42.9633 34.7809L42.9726 34.7248C43.1449 33.6916 43.2873 32.8373 43.3038 32.155C43.3211 31.4394 43.206 30.776 42.7371 30.2225Z" fill="url(#paint0_radial_15_1725)"/>
<g opacity="0.3" filter="url(#filter1_f_15_1725)">
<ellipse cx="32" cy="66" rx="16" ry="8" fill="#E858FF"/>
</g>
</g>
<defs>
<filter id="filter0_f_15_1725" x="-4" y="-4" width="72" height="72" filterUnits="userSpaceOnUse" color-interpolation-filters="sRGB">
<feFlood flood-opacity="0" result="BackgroundImageFix"/>
<feBlend mode="normal" in="SourceGraphic" in2="BackgroundImageFix" result="shape"/>
<feGaussianBlur stdDeviation="12" result="effect1_foregroundBlur_15_1725"/>
</filter>
<filter id="filter1_f_15_1725" x="0" y="42" width="64" height="48" filterUnits="userSpaceOnUse" color-interpolation-filters="sRGB">
<feFlood flood-opacity="0" result="BackgroundImageFix"/>
<feBlend mode="normal" in="SourceGraphic" in2="BackgroundImageFix" result="shape"/>
<feGaussianBlur stdDeviation="8" result="effect1_foregroundBlur_15_1725"/>
</filter>
<radialGradient id="paint0_radial_15_1725" cx="0" cy="0" r="1" gradientUnits="userSpaceOnUse" gradientTransform="translate(32.2776 21.2498) rotate(90) scale(21.5003 22.0557)">
<stop stop-color="#E95CFF"/>
<stop offset="1" stop-color="#D300F5"/>
</radialGradient>
<clipPath id="clip0_15_1725">
<path d="M0 8C0 3.58172 3.58172 0 8 0H56C60.4183 0 64 3.58172 64 8V56C64 60.4183 60.4183 64 56 64H8C3.58172 64 0 60.4183 0 56V8Z" fill="white"/>
</clipPath>
</defs>
</svg>
