<svg width="64" height="64" viewBox="0 0 64 64" fill="none" xmlns="http://www.w3.org/2000/svg">
<g clip-path="url(#clip0_15_1726)">
<g opacity="0.25" filter="url(#filter0_f_15_1726)">
<circle cx="32" cy="32" r="12" fill="#01DDCF"/>
</g>
<path fill-rule="evenodd" clip-rule="evenodd" d="M28.9138 28.9139C28.8076 29.8869 28.7499 30.9228 28.7499 32C28.7499 33.0772 28.8076 34.1131 28.9138 35.0861C29.8868 35.1923 30.9227 35.25 31.9999 35.25C33.0771 35.25 34.113 35.1923 35.086 35.0861C35.1922 34.1131 35.2499 33.0772 35.2499 32C35.2499 30.9228 35.1922 29.8869 35.086 28.9139C34.113 28.8077 33.0771 28.75 31.9999 28.75C30.9227 28.75 29.8868 28.8077 28.9138 28.9139ZM27.384 29.1291C27.2962 30.049 27.2499 31.0113 27.2499 32C27.2499 32.9888 27.2962 33.951 27.384 34.8709C26.2919 34.6808 25.3102 34.4262 24.478 34.1236C23.5305 33.779 22.8164 33.3864 22.3533 32.9883C21.8877 32.588 21.7499 32.2515 21.7499 32C21.7499 31.7485 21.8877 31.412 22.3533 31.0117C22.8164 30.6136 23.5305 30.221 24.478 29.8764C25.3102 29.5738 26.2919 29.3192 27.384 29.1291ZM29.129 27.3841C30.0489 27.2963 31.0112 27.25 31.9999 27.25C32.9887 27.25 33.9509 27.2963 34.8708 27.3841C34.6807 26.292 34.4261 25.3103 34.1235 24.4782C33.7789 23.5306 33.3864 22.8165 32.9882 22.3534C32.5879 21.8878 32.2514 21.75 31.9999 21.75C31.7485 21.75 31.4119 21.8878 31.0116 22.3534C30.6135 22.8165 30.2209 23.5306 29.8763 24.4782C29.5737 25.3103 29.3191 26.292 29.129 27.3841ZM36.6158 29.1291C36.7036 30.049 36.7499 31.0113 36.7499 32C36.7499 32.9888 36.7036 33.951 36.6158 34.8709C37.708 34.6808 38.6896 34.4262 39.5218 34.1236C40.4693 33.779 41.1834 33.3864 41.6465 32.9883C42.1121 32.588 42.2499 32.2515 42.2499 32C42.2499 31.7485 42.1121 31.412 41.6465 31.0117C41.1834 30.6136 40.4693 30.221 39.5218 29.8764C38.6896 29.5738 37.708 29.3192 36.6158 29.1291ZM34.8709 36.6159C33.9509 36.7037 32.9887 36.75 31.9999 36.75C31.0112 36.75 30.0489 36.7037 29.129 36.6159C29.3191 37.7081 29.5737 38.6897 29.8763 39.5219C30.2209 40.4695 30.6135 41.1835 31.0116 41.6467C31.4119 42.1122 31.7485 42.25 31.9999 42.25C32.2514 42.25 32.5879 42.1122 32.9882 41.6467C33.3864 41.1835 33.7789 40.4695 34.1235 39.5219C34.4261 38.6897 34.6807 37.7081 34.8709 36.6159ZM27.5771 36.4228C26.2284 36.2138 25.0046 35.9112 23.9654 35.5333C22.976 35.1735 22.1181 34.7326 21.4775 34.2111C22.3478 38.3739 25.626 41.6521 29.7888 42.5224C29.2673 41.8819 28.8264 41.024 28.4666 40.0345C28.0888 38.9953 27.7861 37.7715 27.5771 36.4228ZM36.4227 36.4228C37.7714 36.2138 38.9952 35.9112 40.0344 35.5333C41.0239 35.1735 41.8818 34.7326 42.5223 34.2111C41.652 38.3739 38.3738 41.6521 34.211 42.5224C34.7325 41.8819 35.1734 41.024 35.5332 40.0345C35.9111 38.9953 36.2137 37.7715 36.4227 36.4228ZM42.5223 29.7889C41.8818 29.2674 41.0238 28.8265 40.0344 28.4667C38.9952 28.0888 37.7714 27.7862 36.4227 27.5772C36.2137 26.2285 35.9111 25.0047 35.5332 23.9655C35.1734 22.9761 34.7325 22.1182 34.211 21.4777C38.3738 22.348 41.6519 25.6262 42.5223 29.7889ZM27.5771 27.5772C26.2284 27.7862 25.0046 28.0888 23.9654 28.4667C22.976 28.8265 22.1181 29.2674 21.4776 29.7889C22.3479 25.6262 25.6261 22.348 29.7888 21.4777C29.2673 22.1182 28.8264 22.9761 28.4666 23.9655C28.0888 25.0047 27.7861 26.2285 27.5771 27.5772Z" fill="url(#paint0_radial_15_1726)"/>
<g opacity="0.3" filter="url(#filter1_f_15_1726)">
<ellipse cx="32" cy="66" rx="16" ry="8" fill="#01DDCF"/>
</g>
</g>
<defs>
<filter id="filter0_f_15_1726" x="-4" y="-4" width="72" height="72" filterUnits="userSpaceOnUse" color-interpolation-filters="sRGB">
<feFlood flood-opacity="0" result="BackgroundImageFix"/>
<feBlend mode="normal" in="SourceGraphic" in2="BackgroundImageFix" result="shape"/>
<feGaussianBlur stdDeviation="12" result="effect1_foregroundBlur_15_1726"/>
</filter>
<filter id="filter1_f_15_1726" x="0" y="42" width="64" height="48" filterUnits="userSpaceOnUse" color-interpolation-filters="sRGB">
<feFlood flood-opacity="0" result="BackgroundImageFix"/>
<feBlend mode="normal" in="SourceGraphic" in2="BackgroundImageFix" result="shape"/>
<feGaussianBlur stdDeviation="8" result="effect1_foregroundBlur_15_1726"/>
</filter>
<radialGradient id="paint0_radial_15_1726" cx="0" cy="0" r="1" gradientUnits="userSpaceOnUse" gradientTransform="translate(31.9999 21.4777) rotate(90) scale(21.0448)">
<stop stop-color="#00E0D1"/>
<stop offset="1" stop-color="#00B8AD"/>
</radialGradient>
<clipPath id="clip0_15_1726">
<path d="M0 8C0 3.58172 3.58172 0 8 0H56C60.4183 0 64 3.58172 64 8V56C64 60.4183 60.4183 64 56 64H8C3.58172 64 0 60.4183 0 56V8Z" fill="white"/>
</clipPath>
</defs>
</svg>
