<svg width="64" height="64" viewBox="0 0 64 64" fill="none" xmlns="http://www.w3.org/2000/svg">
<g clip-path="url(#clip0_23_1737)">
<g opacity="0.25" filter="url(#filter0_f_23_1737)">
<circle cx="32" cy="32" r="12" fill="url(#paint0_linear_23_1737)"/>
</g>
<path fill-rule="evenodd" clip-rule="evenodd" d="M30.4426 22.25C31.3314 22.2499 31.9043 22.2498 32.452 22.3813C32.9367 22.4976 33.4 22.6895 33.825 22.95C34.3054 23.2443 34.7103 23.6494 35.3387 24.2781L35.4049 24.3442L39.0049 27.9442L39.0282 27.9675C39.8005 28.7398 40.4125 29.3518 40.8655 29.8854C41.3287 30.4311 41.6695 30.9439 41.8607 31.5322C42.1707 32.4862 42.1707 33.5138 41.8607 34.4679C41.6695 35.0562 41.3287 35.569 40.8655 36.1146C40.4125 36.6482 39.8005 37.2602 39.0282 38.0325L39.0049 38.0558L38.0558 39.0049L38.0325 39.0282L38.0325 39.0282C37.2602 39.8005 36.6482 40.4125 36.1146 40.8655C35.569 41.3287 35.0562 41.6695 34.4679 41.8607C33.5138 42.1707 32.4862 42.1707 31.5322 41.8607C30.9439 41.6695 30.4311 41.3287 29.8854 40.8655C29.3518 40.4125 28.7399 39.8005 27.9677 39.0283L27.9676 39.0282L27.9442 39.0049L24.3442 35.4049L24.2781 35.3387L24.2781 35.3387L24.278 35.3387C23.6494 34.7103 23.2443 34.3053 22.95 33.825C22.6895 33.4 22.4976 32.9367 22.3813 32.452C22.2498 31.9043 22.2499 31.3314 22.25 30.4426L22.25 30.3491V29.4L22.25 29.367C22.25 28.2749 22.25 27.4094 22.307 26.7118C22.3653 25.9984 22.4869 25.3947 22.7677 24.8436C23.2231 23.9498 23.9498 23.2231 24.8436 22.7677C25.3947 22.4869 25.9984 22.3653 26.7118 22.307C27.4094 22.25 28.2749 22.25 29.367 22.25L29.4 22.25H30.3491L30.4426 22.25ZM30 32C31.1046 32 32 31.1046 32 30C32 28.8955 31.1046 28 30 28C28.8955 28 28 28.8955 28 30C28 31.1046 28.8955 32 30 32Z" fill="url(#paint1_linear_23_1737)"/>
<g opacity="0.3" filter="url(#filter1_f_23_1737)">
<ellipse cx="32" cy="66" rx="16" ry="8" fill="url(#paint2_linear_23_1737)"/>
</g>
</g>
<defs>
<filter id="filter0_f_23_1737" x="-4" y="-4" width="72" height="72" filterUnits="userSpaceOnUse" color-interpolation-filters="sRGB">
<feFlood flood-opacity="0" result="BackgroundImageFix"/>
<feBlend mode="normal" in="SourceGraphic" in2="BackgroundImageFix" result="shape"/>
<feGaussianBlur stdDeviation="12" result="effect1_foregroundBlur_23_1737"/>
</filter>
<filter id="filter1_f_23_1737" x="0" y="42" width="64" height="48" filterUnits="userSpaceOnUse" color-interpolation-filters="sRGB">
<feFlood flood-opacity="0" result="BackgroundImageFix"/>
<feBlend mode="normal" in="SourceGraphic" in2="BackgroundImageFix" result="shape"/>
<feGaussianBlur stdDeviation="8" result="effect1_foregroundBlur_23_1737"/>
</filter>
<linearGradient id="paint0_linear_23_1737" x1="20" y1="20" x2="45.7557" y2="22.0612" gradientUnits="userSpaceOnUse">
<stop stop-color="#6938EF"/>
<stop offset="1" stop-color="#0046FF"/>
</linearGradient>
<linearGradient id="paint1_linear_23_1737" x1="22.25" y1="22.25" x2="43.5448" y2="23.9542" gradientUnits="userSpaceOnUse">
<stop stop-color="#6938EF"/>
<stop offset="1" stop-color="#0046FF"/>
</linearGradient>
<linearGradient id="paint2_linear_23_1737" x1="16" y1="58" x2="49.6976" y2="63.3936" gradientUnits="userSpaceOnUse">
<stop stop-color="#6938EF"/>
<stop offset="1" stop-color="#0046FF"/>
</linearGradient>
<clipPath id="clip0_23_1737">
<path d="M0 8C0 3.58172 3.58172 0 8 0H56C60.4183 0 64 3.58172 64 8V56C64 60.4183 60.4183 64 56 64H8C3.58172 64 0 60.4183 0 56V8Z" fill="white"/>
</clipPath>
</defs>
</svg>
