<svg width="64" height="64" viewBox="0 0 64 64" fill="none" xmlns="http://www.w3.org/2000/svg">
<g clip-path="url(#clip0_18_1603)">
<g opacity="0.3" filter="url(#filter0_f_18_1603)">
<circle cx="32" cy="32" r="12" fill="url(#paint0_linear_18_1603)"/>
</g>
<g opacity="0.3" filter="url(#filter1_f_18_1603)">
<ellipse cx="32" cy="66" rx="16" ry="8" fill="url(#paint1_linear_18_1603)"/>
</g>
<path d="M44.8638 38.9225L40.5717 43.6725C40.4789 43.7757 40.3665 43.858 40.2414 43.9144C40.1164 43.9707 39.9815 43.9999 39.8451 44H19.4987C19.4016 44 19.3067 43.9707 19.2256 43.9158C19.1444 43.8609 19.0805 43.7828 19.0417 43.691C19.0028 43.5992 18.9908 43.4977 19.007 43.399C19.0232 43.3002 19.067 43.2085 19.1329 43.135L23.4202 38.385C23.5131 38.2818 23.6255 38.1995 23.7505 38.1432C23.8755 38.0868 24.0105 38.0577 24.1469 38.0575H44.4932C44.5911 38.0554 44.6875 38.0833 44.7701 38.1376C44.8527 38.1919 44.9181 38.2702 44.9576 38.3626C44.9973 38.4551 45.0094 38.5576 44.9927 38.6572C44.976 38.7569 44.9312 38.8492 44.8638 38.9225ZM40.5717 29.3551C40.4785 29.2524 40.366 29.1704 40.2411 29.114C40.1162 29.0577 39.9814 29.0283 39.8451 29.0276H19.4987C19.4016 29.0276 19.3067 29.0569 19.2256 29.1118C19.1444 29.1667 19.0805 29.2448 19.0417 29.3366C19.0028 29.4284 18.9908 29.5299 19.007 29.6286C19.0232 29.7274 19.067 29.8191 19.1329 29.8926L23.4202 34.6451C23.5134 34.7478 23.6259 34.8298 23.7508 34.8861C23.8758 34.9424 24.0105 34.9718 24.1469 34.9725H44.4932C44.5901 34.972 44.6846 34.9424 44.7655 34.8873C44.8464 34.8323 44.9099 34.7541 44.9484 34.6624C44.9869 34.5707 44.9988 34.4694 44.9823 34.3709C44.9661 34.2724 44.9225 34.1809 44.8566 34.1076L40.5717 29.3551ZM19.4987 25.9426H39.8451C39.9815 25.9424 40.1164 25.9133 40.2414 25.8569C40.3665 25.8006 40.4789 25.7182 40.5717 25.6151L44.8638 20.8651C44.9312 20.7917 44.976 20.6994 44.9927 20.5998C45.0094 20.5002 44.9973 20.3977 44.9576 20.3052C44.9181 20.2128 44.8527 20.1345 44.7701 20.0802C44.6875 20.0259 44.5911 19.998 44.4932 20.0001H24.1469C24.0105 20.0003 23.8755 20.0294 23.7505 20.0858C23.6255 20.1421 23.5131 20.2244 23.4202 20.3276L19.1329 25.0776C19.067 25.1511 19.0232 25.2428 19.007 25.3416C18.9908 25.4403 19.0028 25.5418 19.0417 25.6336C19.0805 25.7254 19.1444 25.8035 19.2256 25.8584C19.3067 25.9133 19.4016 25.9425 19.4987 25.9426Z" fill="url(#paint2_linear_18_1603)"/>
</g>
<defs>
<filter id="filter0_f_18_1603" x="4" y="4" width="56" height="56" filterUnits="userSpaceOnUse" color-interpolation-filters="sRGB">
<feFlood flood-opacity="0" result="BackgroundImageFix"/>
<feBlend mode="normal" in="SourceGraphic" in2="BackgroundImageFix" result="shape"/>
<feGaussianBlur stdDeviation="8" result="effect1_foregroundBlur_18_1603"/>
</filter>
<filter id="filter1_f_18_1603" x="0" y="42" width="64" height="48" filterUnits="userSpaceOnUse" color-interpolation-filters="sRGB">
<feFlood flood-opacity="0" result="BackgroundImageFix"/>
<feBlend mode="normal" in="SourceGraphic" in2="BackgroundImageFix" result="shape"/>
<feGaussianBlur stdDeviation="8" result="effect1_foregroundBlur_18_1603"/>
</filter>
<linearGradient id="paint0_linear_18_1603" x1="36.875" y1="14.75" x2="16.3375" y2="29.5827" gradientUnits="userSpaceOnUse">
<stop stop-color="#1AFC9C"/>
<stop offset="0.505208" stop-color="#5B8EDA"/>
<stop offset="1" stop-color="#9A46FF"/>
</linearGradient>
<linearGradient id="paint1_linear_18_1603" x1="38.5" y1="54.5" x2="25" y2="74" gradientUnits="userSpaceOnUse">
<stop stop-color="#1AFC9C"/>
<stop offset="0.505208" stop-color="#5B8EDA"/>
<stop offset="1" stop-color="#9A46FF"/>
</linearGradient>
<linearGradient id="paint2_linear_18_1603" x1="21.1942" y1="44.5725" x2="43.2865" y2="20.4412" gradientUnits="userSpaceOnUse">
<stop offset="0.08" stop-color="#9945FF"/>
<stop offset="0.3" stop-color="#8752F3"/>
<stop offset="0.5" stop-color="#5497D5"/>
<stop offset="0.6" stop-color="#43B4CA"/>
<stop offset="0.72" stop-color="#28E0B9"/>
<stop offset="0.97" stop-color="#19FB9B"/>
</linearGradient>
<clipPath id="clip0_18_1603">
<path d="M0 8C0 3.58172 3.58172 0 8 0H56C60.4183 0 64 3.58172 64 8V56C64 60.4183 60.4183 64 56 64H8C3.58172 64 0 60.4183 0 56V8Z" fill="white"/>
</clipPath>
</defs>
</svg>
