<svg width="64" height="64" viewBox="0 0 64 64" fill="none" xmlns="http://www.w3.org/2000/svg">
<g clip-path="url(#clip0_26_1937)">
<g opacity="0.25" filter="url(#filter0_f_26_1937)">
<circle cx="32" cy="32" r="12" fill="#0046FF"/>
</g>
<path fill-rule="evenodd" clip-rule="evenodd" d="M22.3484 22.3484C22.9503 21.7464 23.7082 21.4875 24.6083 21.3665C25.4752 21.25 26.5775 21.25 27.9451 21.25H27.9451H28H33H33.0358H33.0358H33.0358C33.9401 21.25 34.6693 21.25 35.2576 21.3033C35.864 21.3583 36.3938 21.4746 36.875 21.7524C37.4451 22.0815 37.9185 22.5549 38.2476 23.125C38.5255 23.6063 38.6418 24.1361 38.6967 24.7424C38.75 25.3307 38.75 26.06 38.75 26.9642V27L38.75 27.1618C38.7501 27.4608 38.7501 27.7393 38.7486 28H32L31.903 28H31.903C31.2814 27.9998 30.6319 27.9996 30.0876 28.0728C29.4573 28.1575 28.6783 28.3719 28.0251 29.0251C27.3719 29.6783 27.1575 30.4574 27.0728 31.0876C26.9996 31.6319 26.9998 32.2814 27 32.903V32.903L27 33V34.8026C26.3518 34.9056 25.7336 35.1577 25.1955 35.5423C25.1574 35.5695 25.1183 35.5988 25.0214 35.6714L24.9927 35.693L24.9927 35.693C24.8752 35.7811 24.7797 35.8528 24.7036 35.901C23.2723 36.8072 21.3909 35.8665 21.257 34.1778C21.2499 34.0879 21.25 33.9685 21.25 33.8217L21.25 33.8216L21.25 33.7857V28V27.9451V27.9451C21.25 26.5775 21.25 25.4752 21.3665 24.6083C21.4876 23.7081 21.7464 22.9503 22.3484 22.3484ZM32.948 29.25L33 29.25H38L38.052 29.25C38.9505 29.25 39.6997 29.2499 40.2945 29.3299C40.9223 29.4143 41.4891 29.6 41.9446 30.0555C42.4 30.5109 42.5857 31.0777 42.6701 31.7055C42.7501 32.3003 42.75 33.0495 42.75 33.948V34V40.3636C42.75 42.0164 40.7705 42.8648 39.5737 41.7249C39.0128 41.1908 38.268 40.8929 37.4935 40.8929H33L32.948 40.8929H32.948H32.948C32.0495 40.8929 31.3003 40.8929 30.7055 40.8129C30.0777 40.7285 29.5109 40.5429 29.0555 40.0874C28.6 39.6319 28.4143 39.0651 28.3299 38.4373C28.25 37.8426 28.25 37.0933 28.25 36.1949L28.25 36.1429V34L28.25 33.948C28.25 33.0495 28.25 32.3003 28.3299 31.7055C28.4143 31.0777 28.6 30.5109 29.0555 30.0555C29.5109 29.6 30.0777 29.4143 30.7055 29.3299C31.3003 29.2499 32.0495 29.25 32.948 29.25Z" fill="url(#paint0_radial_26_1937)"/>
<g opacity="0.3" filter="url(#filter1_f_26_1937)">
<ellipse cx="32" cy="66" rx="16" ry="8" fill="#0046FF"/>
</g>
</g>
<defs>
<filter id="filter0_f_26_1937" x="-4" y="-4" width="72" height="72" filterUnits="userSpaceOnUse" color-interpolation-filters="sRGB">
<feFlood flood-opacity="0" result="BackgroundImageFix"/>
<feBlend mode="normal" in="SourceGraphic" in2="BackgroundImageFix" result="shape"/>
<feGaussianBlur stdDeviation="12" result="effect1_foregroundBlur_26_1937"/>
</filter>
<filter id="filter1_f_26_1937" x="0" y="42" width="64" height="48" filterUnits="userSpaceOnUse" color-interpolation-filters="sRGB">
<feFlood flood-opacity="0" result="BackgroundImageFix"/>
<feBlend mode="normal" in="SourceGraphic" in2="BackgroundImageFix" result="shape"/>
<feGaussianBlur stdDeviation="8" result="effect1_foregroundBlur_26_1937"/>
</filter>
<radialGradient id="paint0_radial_26_1937" cx="0" cy="0" r="1" gradientUnits="userSpaceOnUse" gradientTransform="translate(32 21.25) rotate(90) scale(20.9973 21.5)">
<stop stop-color="#0046FF"/>
<stop offset="1" stop-color="#0028E1"/>
</radialGradient>
<clipPath id="clip0_26_1937">
<path d="M0 8C0 3.58172 3.58172 0 8 0H56C60.4183 0 64 3.58172 64 8V56C64 60.4183 60.4183 64 56 64H8C3.58172 64 0 60.4183 0 56V8Z" fill="white"/>
</clipPath>
</defs>
</svg>
