<svg width="64" height="64" viewBox="0 0 64 64" fill="none" xmlns="http://www.w3.org/2000/svg">
<g clip-path="url(#clip0_12_1432)">
<g opacity="0.25" filter="url(#filter0_f_12_1432)">
<circle cx="32" cy="32" r="12" fill="#49CB8E"/>
</g>
<path fill-rule="evenodd" clip-rule="evenodd" d="M25.25 28C25.25 24.2721 28.2721 21.25 32 21.25C35.7279 21.25 38.75 24.2721 38.75 28C38.75 31.7279 35.7279 34.75 32 34.75C28.2721 34.75 25.25 31.7279 25.25 28ZM21.25 35.9394C21.25 33.5514 22.4685 31.4482 24.3155 30.2321C25.2817 33.5642 28.3564 36 32 36C32.9615 36 33.8834 35.8304 34.7373 35.5194C34.7457 35.6584 34.75 35.7984 34.75 35.9394C34.75 39.6936 31.735 42.75 28 42.75C24.265 42.75 21.25 39.6936 21.25 35.9394ZM35.934 34.9675C37.724 33.9546 39.085 32.2719 39.6764 30.2598C41.5267 31.478 42.75 33.5648 42.75 35.9394C42.75 39.7066 39.6725 42.75 35.8892 42.75C34.8968 42.75 33.9528 42.5405 33.1003 42.1636C34.8717 40.6962 36 38.4798 36 36C36 35.6501 35.9776 35.3055 35.934 34.9675Z" fill="url(#paint0_radial_12_1432)"/>
<g opacity="0.3" filter="url(#filter1_f_12_1432)">
<ellipse cx="32" cy="66" rx="16" ry="8" fill="#49CB8E"/>
</g>
</g>
<defs>
<filter id="filter0_f_12_1432" x="-4" y="-4" width="72" height="72" filterUnits="userSpaceOnUse" color-interpolation-filters="sRGB">
<feFlood flood-opacity="0" result="BackgroundImageFix"/>
<feBlend mode="normal" in="SourceGraphic" in2="BackgroundImageFix" result="shape"/>
<feGaussianBlur stdDeviation="12" result="effect1_foregroundBlur_12_1432"/>
</filter>
<filter id="filter1_f_12_1432" x="0" y="42" width="64" height="48" filterUnits="userSpaceOnUse" color-interpolation-filters="sRGB">
<feFlood flood-opacity="0" result="BackgroundImageFix"/>
<feBlend mode="normal" in="SourceGraphic" in2="BackgroundImageFix" result="shape"/>
<feGaussianBlur stdDeviation="8" result="effect1_foregroundBlur_12_1432"/>
</filter>
<radialGradient id="paint0_radial_12_1432" cx="0" cy="0" r="1" gradientUnits="userSpaceOnUse" gradientTransform="translate(32 21.25) rotate(90) scale(21.5)">
<stop stop-color="#58DA9D"/>
<stop offset="1" stop-color="#25A76A"/>
</radialGradient>
<clipPath id="clip0_12_1432">
<path d="M0 8C0 3.58172 3.58172 0 8 0H56C60.4183 0 64 3.58172 64 8V56C64 60.4183 60.4183 64 56 64H8C3.58172 64 0 60.4183 0 56V8Z" fill="white"/>
</clipPath>
</defs>
</svg>
