<svg width="64" height="64" viewBox="0 0 64 64" fill="none" xmlns="http://www.w3.org/2000/svg">
<g clip-path="url(#clip0_23_1734)">
<g opacity="0.25" filter="url(#filter0_f_23_1734)">
<circle cx="32" cy="32" r="12" fill="url(#paint0_linear_23_1734)"/>
</g>
<path fill-rule="evenodd" clip-rule="evenodd" d="M30.8 22.75C32.0168 22.75 32.4787 22.7568 32.8925 22.875C33.28 22.9856 33.6435 23.1674 33.9645 23.411C34.3073 23.6711 34.5899 24.0366 35.32 25.01L35.5 25.25H32H23.9912C23.3049 25.2453 22.75 24.6875 22.75 24C22.75 23.3097 23.3096 22.75 24 22.75H30.8ZM21.25 24C21.25 22.4812 22.4812 21.25 24 21.25H30.8L30.9131 21.25C31.9779 21.2498 32.6637 21.2497 33.3044 21.4326C33.8708 21.5944 34.4021 21.86 34.8713 22.2161C35.4021 22.6189 35.8134 23.1676 36.4521 24.0195L36.4521 24.0195L36.52 24.11L37.3845 25.2627C37.7141 25.271 38.0141 25.2846 38.2883 25.307C39.0017 25.3653 39.6053 25.4869 40.1565 25.7677C41.0502 26.2231 41.7769 26.9498 42.2323 27.8435C42.5131 28.3947 42.6347 28.9983 42.693 29.7117C42.7068 29.881 42.7173 30.0601 42.7252 30.25H41C38.9289 30.25 37.25 31.9289 37.25 34C37.25 36.0711 38.9289 37.75 41 37.75H42.7252C42.7173 37.9399 42.7068 38.119 42.693 38.2883C42.6347 39.0017 42.5131 39.6053 42.2323 40.1565C41.7769 41.0502 41.0502 41.7769 40.1565 42.2323C39.6053 42.5131 39.0017 42.6347 38.2883 42.693C37.5906 42.75 36.7252 42.75 35.633 42.75H35.6H28.4H28.367C27.2748 42.75 26.4094 42.75 25.7117 42.693C24.9983 42.6347 24.3947 42.5131 23.8435 42.2323C22.9498 41.7769 22.2231 41.0502 21.7677 40.1565C21.4869 39.6053 21.3653 39.0017 21.307 38.2883C21.25 37.5906 21.25 36.7252 21.25 35.633V35.633V35.6V26V26V24ZM42.7496 36.25C42.75 36.0528 42.75 35.8473 42.75 35.633V35.6V32.4V32.367V32.3641C42.75 32.1509 42.75 31.9464 42.7496 31.75H41C39.7574 31.75 38.75 32.7574 38.75 34C38.75 35.2426 39.7574 36.25 41 36.25H42.7496Z" fill="url(#paint1_linear_23_1734)"/>
<g opacity="0.3" filter="url(#filter1_f_23_1734)">
<ellipse cx="32" cy="66" rx="16" ry="8" fill="url(#paint2_linear_23_1734)"/>
</g>
</g>
<defs>
<filter id="filter0_f_23_1734" x="-4" y="-4" width="72" height="72" filterUnits="userSpaceOnUse" color-interpolation-filters="sRGB">
<feFlood flood-opacity="0" result="BackgroundImageFix"/>
<feBlend mode="normal" in="SourceGraphic" in2="BackgroundImageFix" result="shape"/>
<feGaussianBlur stdDeviation="12" result="effect1_foregroundBlur_23_1734"/>
</filter>
<filter id="filter1_f_23_1734" x="0" y="42" width="64" height="48" filterUnits="userSpaceOnUse" color-interpolation-filters="sRGB">
<feFlood flood-opacity="0" result="BackgroundImageFix"/>
<feBlend mode="normal" in="SourceGraphic" in2="BackgroundImageFix" result="shape"/>
<feGaussianBlur stdDeviation="8" result="effect1_foregroundBlur_23_1734"/>
</filter>
<linearGradient id="paint0_linear_23_1734" x1="20" y1="20" x2="45.7557" y2="22.0612" gradientUnits="userSpaceOnUse">
<stop stop-color="#6938EF"/>
<stop offset="1" stop-color="#0046FF"/>
</linearGradient>
<linearGradient id="paint1_linear_23_1734" x1="21.25" y1="21.25" x2="44.3229" y2="23.0965" gradientUnits="userSpaceOnUse">
<stop stop-color="#6938EF"/>
<stop offset="1" stop-color="#0046FF"/>
</linearGradient>
<linearGradient id="paint2_linear_23_1734" x1="16" y1="58" x2="49.6976" y2="63.3936" gradientUnits="userSpaceOnUse">
<stop stop-color="#6938EF"/>
<stop offset="1" stop-color="#0046FF"/>
</linearGradient>
<clipPath id="clip0_23_1734">
<path d="M0 8C0 3.58172 3.58172 0 8 0H56C60.4183 0 64 3.58172 64 8V56C64 60.4183 60.4183 64 56 64H8C3.58172 64 0 60.4183 0 56V8Z" fill="white"/>
</clipPath>
</defs>
</svg>
