<svg width="25" height="24" viewBox="0 0 25 24" fill="none" xmlns="http://www.w3.org/2000/svg">
<path fill-rule="evenodd" clip-rule="evenodd" d="M10.5 2.25H10.4664C9.09472 2.25 8.01929 2.24999 7.15494 2.32061C6.27479 2.39252 5.54769 2.54138 4.88955 2.87671C3.80762 3.42798 2.92798 4.30762 2.37671 5.38955C2.04138 6.04769 1.89252 6.77479 1.82061 7.65494C1.74999 8.51929 1.75 9.59472 1.75 10.9664V11V13V13.0336C1.75 14.4053 1.74999 15.4807 1.82061 16.3451C1.89252 17.2252 2.04138 17.9523 2.37671 18.6104C2.92798 19.6924 3.80762 20.572 4.88955 21.1233C5.54769 21.4586 6.27479 21.6075 7.15494 21.6794C8.01927 21.75 9.09469 21.75 10.4664 21.75H10.4664H10.5H14.5H14.5336H14.5336C15.9053 21.75 16.9807 21.75 17.8451 21.6794C18.7252 21.6075 19.4523 21.4586 20.1104 21.1233C21.1924 20.572 22.072 19.6924 22.6233 18.6104C22.9586 17.9523 23.1075 17.2252 23.1794 16.3451C23.25 15.4807 23.25 14.4053 23.25 13.0336V13.0336V13V11V10.9664V10.9664C23.25 9.59469 23.25 8.51927 23.1794 7.65494C23.1075 6.77479 22.9586 6.04769 22.6233 5.38955C22.072 4.30762 21.1924 3.42798 20.1104 2.87671C19.4523 2.54138 18.7252 2.39252 17.8451 2.32061C16.9807 2.24999 15.9053 2.25 14.5336 2.25H14.5H10.5ZM5.57054 4.21322C5.98197 4.00359 6.4897 3.87996 7.27708 3.81563C8.07322 3.75058 9.08749 3.75 10.5 3.75H14.5C15.9125 3.75 16.9268 3.75058 17.7229 3.81563C18.5103 3.87996 19.018 4.00359 19.4295 4.21322C20.2291 4.62068 20.8793 5.27085 21.2868 6.07054C21.4964 6.48197 21.62 6.9897 21.6844 7.77708C21.7494 8.57322 21.75 9.58749 21.75 11V13C21.75 14.4125 21.7494 15.4268 21.6844 16.2229C21.62 17.0103 21.4964 17.518 21.2868 17.9295C20.8793 18.7291 20.2291 19.3793 19.4295 19.7868C19.018 19.9964 18.5103 20.12 17.7229 20.1844C16.9268 20.2494 15.9125 20.25 14.5 20.25H10.5C9.08749 20.25 8.07322 20.2494 7.27708 20.1844C6.4897 20.12 5.98197 19.9964 5.57054 19.7868C4.77085 19.3793 4.12068 18.7291 3.71322 17.9295C3.50359 17.518 3.37996 17.0103 3.31563 16.2229C3.25058 15.4268 3.25 14.4125 3.25 13V11C3.25 9.58749 3.25058 8.57322 3.31563 7.77708C3.37996 6.9897 3.50359 6.48197 3.71322 6.07054C4.12068 5.27085 4.77085 4.62068 5.57054 4.21322ZM6.91603 7.37596C6.57138 7.1462 6.10573 7.23933 5.87596 7.58397C5.6462 7.92862 5.73933 8.39427 6.08398 8.62404L7.08398 9.2907L7.20034 9.36829L7.20035 9.3683C8.69864 10.3674 9.59026 10.9619 10.5527 11.2519C11.8227 11.6346 13.1773 11.6346 14.4473 11.2519C15.4097 10.9619 16.3014 10.3674 17.7997 9.36829L17.916 9.2907L18.916 8.62404C19.2607 8.39427 19.3538 7.92862 19.124 7.58397C18.8943 7.23933 18.4286 7.1462 18.084 7.37596L17.084 8.04263C15.4337 9.14281 14.7367 9.59812 14.0145 9.81569C13.0268 10.1133 11.9732 10.1133 10.9855 9.81569C10.2633 9.59812 9.5663 9.14281 7.91603 8.04263L6.91603 7.37596Z" fill="#A1A4BC"/>
</svg>
