<svg width="160" height="38" viewBox="0 0 160 38" fill="none" xmlns="http://www.w3.org/2000/svg">
<path d="M19 3L27 11L19 19L11 11L19 3Z" fill="#A1A4BC" stroke="#03040D" stroke-width="3"/>
<path d="M11 11L19 19L11 27L2.99999 19L11 11Z" fill="#A1A4BC" stroke="#03040D" stroke-width="3"/>
<path d="M19 19L27 27L19 35L11 27L19 19Z" fill="#A1A4BC" stroke="#03040D" stroke-width="3"/>
<path d="M50.0437 23.648C48.8307 24.8827 47.2993 25.5 45.4497 25.5C43.6001 25.5 42.0627 24.8827 40.8376 23.648C39.6125 22.4134 39 20.8641 39 19C39 17.1359 39.6125 15.5866 40.8376 14.352C42.0627 13.1173 43.6001 12.5 45.4497 12.5C47.2993 12.5 48.8307 13.1173 50.0437 14.352C51.2688 15.5866 51.8813 17.1359 51.8813 19C51.8813 20.8641 51.2688 22.4134 50.0437 23.648ZM42.7653 21.9777C43.4619 22.7523 44.3507 23.1397 45.4317 23.1397C46.5126 23.1397 47.4014 22.7463 48.098 21.9595C48.8066 21.1727 49.1609 20.1862 49.1609 19C49.1609 17.8017 48.8066 16.8091 48.098 16.0223C47.4014 15.2356 46.5126 14.8422 45.4317 14.8422C44.3507 14.8422 43.4619 15.2356 42.7653 16.0223C42.0687 16.8091 41.7204 17.8017 41.7204 19C41.7204 20.1983 42.0687 21.1909 42.7653 21.9777Z" fill="#A1A4BC"/>
<path d="M56.6536 25.3547V12.6453H59.5362L64.5986 21.0517V12.6453H67.301V25.3547H64.4185L59.356 16.9483V25.3547H56.6536Z" fill="#A1A4BC"/>
<path d="M78.4054 25.5C76.6039 25.5 75.0965 24.9311 73.8835 23.7933C72.6824 22.6555 72.0819 21.0577 72.0819 19C72.0819 16.9544 72.6884 15.3627 73.9015 14.2249C75.1145 13.075 76.6159 12.5 78.4054 12.5C79.9908 12.5 81.318 12.9176 82.387 13.7528C83.4559 14.588 84.0744 15.6895 84.2426 17.0573H81.4141C81.33 16.4036 81.0057 15.871 80.4412 15.4595C79.8767 15.048 79.1981 14.8422 78.4054 14.8422C77.3485 14.8422 76.4837 15.2053 75.8112 15.9316C75.1386 16.6578 74.8023 17.6806 74.8023 19C74.8023 20.3194 75.1386 21.3422 75.8112 22.0684C76.4837 22.7826 77.3485 23.1397 78.4054 23.1397C79.2102 23.1397 79.8948 22.9399 80.4593 22.5405C81.0358 22.129 81.3781 21.5964 81.4862 20.9427H84.1885C84.0684 22.3105 83.4739 23.412 82.405 24.2472C81.348 25.0824 80.0149 25.5 78.4054 25.5Z" fill="#A1A4BC"/>
<path d="M88.8558 25.3547V12.6453H91.5762V22.9944H97.3053V25.3547H88.8558Z" fill="#A1A4BC"/>
<path d="M111.739 23.648C110.526 24.8827 108.994 25.5 107.145 25.5C105.295 25.5 103.758 24.8827 102.533 23.648C101.308 22.4134 100.695 20.8641 100.695 19C100.695 17.1359 101.308 15.5866 102.533 14.352C103.758 13.1173 105.295 12.5 107.145 12.5C108.994 12.5 110.526 13.1173 111.739 14.352C112.964 15.5866 113.576 17.1359 113.576 19C113.576 20.8641 112.964 22.4134 111.739 23.648ZM104.46 21.9777C105.157 22.7523 106.046 23.1397 107.127 23.1397C108.208 23.1397 109.096 22.7463 109.793 21.9595C110.502 21.1727 110.856 20.1862 110.856 19C110.856 17.8017 110.502 16.8091 109.793 16.0223C109.096 15.2356 108.208 14.8422 107.127 14.8422C106.046 14.8422 105.157 15.2356 104.46 16.0223C103.764 16.8091 103.415 17.8017 103.415 19C103.415 20.1983 103.764 21.1909 104.46 21.9777Z" fill="#A1A4BC"/>
<path d="M126.78 24.2654C125.879 25.0885 124.66 25.5 123.123 25.5C121.585 25.5 120.36 25.0885 119.448 24.2654C118.547 23.4302 118.096 22.2318 118.096 20.6704V12.6453H120.637V20.6704C120.637 21.4814 120.859 22.0926 121.303 22.5042C121.76 22.9157 122.366 23.1215 123.123 23.1215C123.879 23.1215 124.486 22.9157 124.942 22.5042C125.399 22.0926 125.627 21.4814 125.627 20.6704V12.6453H128.149V20.6704C128.149 22.2318 127.693 23.4302 126.78 24.2654Z" fill="#A1A4BC"/>
<path d="M133.245 25.3547V12.6453H137.478C139.34 12.6453 140.889 13.1899 142.126 14.2793C143.375 15.3687 144 16.9423 144 19C144 20.041 143.826 20.9791 143.478 21.8142C143.129 22.6373 142.649 23.3031 142.036 23.8115C141.436 24.3198 140.745 24.7072 139.964 24.9735C139.196 25.2277 138.367 25.3547 137.478 25.3547H133.245ZM135.947 22.9944H137.208C138.373 22.9944 139.34 22.6797 140.109 22.0503C140.877 21.4088 141.262 20.392 141.262 19C141.262 17.608 140.877 16.5912 140.109 15.9497C139.34 15.3082 138.373 14.9874 137.208 14.9874H135.947V22.9944Z" fill="#A1A4BC"/>
<path d="M160 21.2816C160 21.9478 159.879 22.5433 159.638 23.068C159.402 23.5927 159.07 24.0349 158.641 24.3946C158.213 24.7542 157.702 25.0283 157.111 25.217C156.519 25.4057 155.87 25.5 155.163 25.5C154.553 25.5 153.964 25.4234 153.397 25.2701C152.835 25.1227 152.325 24.8868 151.866 24.5626C151.413 24.2324 151.024 23.8138 150.697 23.3068C150.371 22.7939 150.139 22.1807 150 21.4673L152.264 21.1313C152.343 21.5027 152.455 21.8358 152.6 22.1306C152.751 22.4195 152.944 22.6671 153.179 22.8735C153.415 23.0739 153.699 23.2302 154.031 23.3422C154.369 23.4483 154.761 23.5014 155.208 23.5014C155.583 23.5014 155.924 23.4453 156.232 23.3333C156.54 23.2213 156.803 23.068 157.02 22.8735C157.237 22.6789 157.406 22.4519 157.527 22.1925C157.648 21.9331 157.708 21.659 157.708 21.3701C157.708 20.6921 157.485 20.1821 157.038 19.8401C156.591 19.4923 155.966 19.3184 155.163 19.3184H153.65V17.6027L156.784 14.4986H150.734V12.5H159.466V14.4986L156.241 17.6558C157.467 17.7855 158.4 18.151 159.04 18.7524C159.68 19.3478 160 20.1909 160 21.2816Z" fill="#A1A4BC"/>
</svg>
