<svg width="203" height="48" viewBox="0 0 203 48" fill="none" xmlns="http://www.w3.org/2000/svg">
<path d="M24.3819 2.80951L35.1458 13.4048L24.3819 24L13.6181 13.4048L24.3819 2.80951Z" fill="white"/>
<path fill-rule="evenodd" clip-rule="evenodd" d="M24.3819 0L38 13.4047L24.3819 26.8095L10.7639 13.4047L24.3819 0ZM24.3819 5.61898L16.4723 13.4047L24.3819 21.1905L32.2916 13.4047L24.3819 5.61898Z" fill="#03040D"/>
<path d="M13.6181 13.4047L24.382 24L13.6181 34.5952L2.85423 24L13.6181 13.4047Z" fill="white"/>
<path fill-rule="evenodd" clip-rule="evenodd" d="M13.6181 10.5953L27.2362 24L13.6181 37.4048L3.26299e-05 24L13.6181 10.5953ZM13.6181 16.2143L5.70843 24L13.6181 31.7858L21.5278 24L13.6181 16.2143Z" fill="#03040D"/>
<path d="M24.3819 24L35.1458 34.5953L24.3819 45.1905L13.6181 34.5953L24.3819 24Z" fill="white"/>
<path fill-rule="evenodd" clip-rule="evenodd" d="M24.3819 21.1905L38 34.5952L24.3819 48L10.7639 34.5952L24.3819 21.1905ZM24.3819 26.8095L16.4723 34.5952L24.3819 42.381L32.2916 34.5952L24.3819 26.8095Z" fill="#03040D"/>
<path d="M66.8835 29.7207C65.3585 31.2402 63.4334 32 61.1082 32C58.7829 32 56.8502 31.2402 55.3101 29.7207C53.77 28.2011 53 26.2942 53 24C53 21.7058 53.77 19.7989 55.3101 18.2793C56.8502 16.7598 58.7829 16 61.1082 16C63.4334 16 65.3585 16.7598 66.8835 18.2793C68.4236 19.7989 69.1937 21.7058 69.1937 24C69.1937 26.2942 68.4236 28.2011 66.8835 29.7207ZM57.7335 27.6648C58.6093 28.6183 59.7266 29.095 61.0855 29.095C62.4444 29.095 63.5618 28.6108 64.4375 27.6425C65.3283 26.6741 65.7738 25.46 65.7738 24C65.7738 22.5251 65.3283 21.3035 64.4375 20.3352C63.5618 19.3669 62.4444 18.8827 61.0855 18.8827C59.7266 18.8827 58.6093 19.3669 57.7335 20.3352C56.8578 21.3035 56.4199 22.5251 56.4199 24C56.4199 25.4749 56.8578 26.6965 57.7335 27.6648Z" fill="white"/>
<path d="M75.1931 31.8212V16.1788H78.8169L85.1811 26.5251V16.1788H88.5784V31.8212H84.9546L78.5904 21.4749V31.8212H75.1931Z" fill="white"/>
<path d="M102.538 32C100.273 32 98.3785 31.2998 96.8535 29.8994C95.3436 28.4991 94.5886 26.5326 94.5886 24C94.5886 21.4823 95.3511 19.5233 96.8761 18.1229C98.4011 16.7076 100.289 16 102.538 16C104.531 16 106.2 16.514 107.544 17.5419C108.887 18.5698 109.665 19.9255 109.876 21.6089H106.321C106.215 20.8045 105.807 20.149 105.098 19.6425C104.388 19.1359 103.535 18.8827 102.538 18.8827C101.21 18.8827 100.122 19.3296 99.2769 20.2235C98.4313 21.1173 98.0086 22.3762 98.0086 24C98.0086 25.6238 98.4313 26.8827 99.2769 27.7765C100.122 28.6555 101.21 29.095 102.538 29.095C103.55 29.095 104.411 28.8492 105.12 28.3575C105.845 27.851 106.275 27.1955 106.411 26.3911H109.808C109.657 28.0745 108.91 29.4302 107.566 30.4581C106.238 31.486 104.562 32 102.538 32Z" fill="white"/>
<path d="M115.676 31.8212V16.1788H119.096V28.9162H126.298V31.8212H115.676Z" fill="white"/>
<path d="M144.443 29.7207C142.918 31.2402 140.993 32 138.668 32C136.342 32 134.41 31.2402 132.87 29.7207C131.329 28.2011 130.559 26.2942 130.559 24C130.559 21.7058 131.329 19.7989 132.87 18.2793C134.41 16.7598 136.342 16 138.668 16C140.993 16 142.918 16.7598 144.443 18.2793C145.983 19.7989 146.753 21.7058 146.753 24C146.753 26.2942 145.983 28.2011 144.443 29.7207ZM135.293 27.6648C136.169 28.6183 137.286 29.095 138.645 29.095C140.004 29.095 141.121 28.6108 141.997 27.6425C142.888 26.6741 143.333 25.46 143.333 24C143.333 22.5251 142.888 21.3035 141.997 20.3352C141.121 19.3669 140.004 18.8827 138.645 18.8827C137.286 18.8827 136.169 19.3669 135.293 20.3352C134.417 21.3035 133.979 22.5251 133.979 24C133.979 25.4749 134.417 26.6965 135.293 27.6648Z" fill="white"/>
<path d="M163.352 30.4804C162.22 31.4935 160.687 32 158.754 32C156.822 32 155.282 31.4935 154.134 30.4804C153.002 29.4525 152.435 27.9777 152.435 26.0559V16.1788H155.629V26.0559C155.629 27.054 155.908 27.8063 156.467 28.3128C157.041 28.8194 157.803 29.0726 158.754 29.0726C159.706 29.0726 160.468 28.8194 161.042 28.3128C161.616 27.8063 161.903 27.054 161.903 26.0559V16.1788H165.073V26.0559C165.073 27.9777 164.5 29.4525 163.352 30.4804Z" fill="white"/>
<path d="M171.479 31.8212V16.1788H176.801C179.142 16.1788 181.089 16.8492 182.645 18.1899C184.215 19.5307 185 21.4674 185 24C185 25.2812 184.781 26.4358 184.343 27.4637C183.905 28.4767 183.301 29.2961 182.531 29.9218C181.776 30.5475 180.908 31.0242 179.927 31.352C178.96 31.6648 177.919 31.8212 176.801 31.8212H171.479ZM174.876 28.9162H176.461C177.926 28.9162 179.142 28.5289 180.108 27.7542C181.074 26.9646 181.557 25.7132 181.557 24C181.557 22.2868 181.074 21.0354 180.108 20.2458C179.142 19.4562 177.926 19.0615 176.461 19.0615H174.876V28.9162Z" fill="white"/>
<path d="M203 26.8082C203 27.6281 202.855 28.361 202.565 29.0068C202.283 29.6526 201.884 30.1968 201.37 30.6395C200.855 31.0821 200.243 31.4195 199.533 31.6517C198.822 31.8839 198.043 32 197.196 32C196.464 32 195.757 31.9057 195.076 31.717C194.402 31.5356 193.79 31.2454 193.239 30.8463C192.696 30.4399 192.228 29.9247 191.837 29.3007C191.446 28.6694 191.167 27.9147 191 27.0367L193.717 26.6231C193.812 27.0803 193.946 27.4902 194.12 27.8531C194.301 28.2086 194.533 28.5134 194.815 28.7673C195.098 29.0141 195.438 29.2063 195.837 29.3442C196.243 29.4748 196.714 29.5401 197.25 29.5401C197.699 29.5401 198.109 29.4712 198.478 29.3333C198.848 29.1955 199.163 29.0068 199.424 28.7673C199.685 28.5279 199.888 28.2485 200.033 27.9293C200.178 27.61 200.25 27.2726 200.25 26.917C200.25 26.0825 199.982 25.4549 199.446 25.034C198.909 24.6059 198.159 24.3918 197.196 24.3918H195.38V22.2803L199.141 18.4599H191.88V16H202.359V18.4599L198.489 22.3456C199.96 22.5052 201.08 22.9551 201.848 23.6952C202.616 24.4281 203 25.4658 203 26.8082Z" fill="white"/>
</svg>
