<svg width="36" height="46" viewBox="0 0 36 46" fill="none" xmlns="http://www.w3.org/2000/svg">
<path d="M23 3L33 13L23 23L13 13L23 3Z" fill="white"/>
<path fill-rule="evenodd" clip-rule="evenodd" d="M23 0.348328L35.6517 13L23 25.6516L10.3483 13L23 0.348328ZM23 5.65163L15.6516 13L23 20.3483L30.3484 13L23 5.65163Z" fill="#03040D"/>
<path d="M13 13L23 23L13 33L2.99999 23L13 13Z" fill="white"/>
<path fill-rule="evenodd" clip-rule="evenodd" d="M13 10.3483L25.6517 23L13 35.6516L0.348342 23L13 10.3483ZM13 15.6516L5.65164 23L13 30.3483L20.3484 23L13 15.6516Z" fill="#03040D"/>
<path d="M23 23L33 33L23 43L13 33L23 23Z" fill="white"/>
<path fill-rule="evenodd" clip-rule="evenodd" d="M23 20.3483L35.6517 33L23 45.6516L10.3483 33L23 20.3483ZM23 25.6516L15.6516 33L23 40.3483L30.3484 33L23 25.6516Z" fill="#03040D"/>
</svg>
