<svg width="24" height="24" viewBox="0 0 24 24" fill="none" xmlns="http://www.w3.org/2000/svg">
<path fill-rule="evenodd" clip-rule="evenodd" d="M12 1C5.92567 1 1 6.04929 1 12.2784C1 17.2615 4.15187 21.4891 8.52249 22.9805C9.07218 23.0849 9.27408 22.7358 9.27408 22.4379C9.27408 22.1691 9.26397 21.2805 9.25919 20.3381C6.19897 21.0204 5.55323 19.0074 5.55323 19.0074C5.0528 17.7038 4.33192 17.3571 4.33192 17.3571C3.33379 16.6571 4.40715 16.6715 4.40715 16.6715C5.51162 16.751 6.09334 17.8339 6.09334 17.8339C7.07441 19.558 8.66661 19.0595 9.29441 18.7714C9.39316 18.0425 9.6781 17.5448 9.99279 17.2632C7.54951 16.9781 4.98101 16.0109 4.98101 11.6893C4.98101 10.4581 5.41077 9.4519 6.11449 8.66204C6.00029 8.37786 5.62373 7.23082 6.22107 5.67721C6.22107 5.67721 7.14482 5.37426 9.24671 6.83345C10.1242 6.58352 11.0653 6.4582 12.0001 6.45385C12.9348 6.4582 13.8766 6.58352 14.7556 6.83345C16.8552 5.37426 17.7777 5.67721 17.7777 5.67721C18.3764 7.23082 17.9998 8.37786 17.8856 8.66204C18.591 9.4519 19.0177 10.458 19.0177 11.6893C19.0177 16.0213 16.4444 16.9749 13.9948 17.2542C14.3894 17.6043 14.7409 18.2906 14.7409 19.3428C14.7409 20.8519 14.7283 22.0664 14.7283 22.4379C14.7283 22.7381 14.9262 23.0899 15.4837 22.9791C19.8521 21.4861 23 17.2599 23 12.2784C23 6.04929 18.075 1 12 1Z" fill="#A1A4BC"/>
<path d="M5.16644 17.1936C5.14223 17.2498 5.05615 17.2665 4.97786 17.2281C4.89801 17.1913 4.85336 17.1148 4.87913 17.0587C4.9028 17.001 4.98886 16.9849 5.06858 17.0234C5.14848 17.0603 5.19404 17.1374 5.16644 17.1936Z" fill="#A1A4BC"/>
<path d="M5.6118 17.7029C5.55937 17.7526 5.45666 17.7295 5.38708 17.6507C5.31504 17.5721 5.30173 17.4668 5.35497 17.4163C5.40905 17.3665 5.50852 17.3898 5.58051 17.4685C5.65259 17.548 5.6666 17.6524 5.6118 17.7029Z" fill="#A1A4BC"/>
<path d="M6.04552 18.3521C5.97808 18.4003 5.8678 18.3551 5.79964 18.2549C5.73221 18.1545 5.73222 18.0342 5.80122 17.986C5.86938 17.9379 5.9781 17.9812 6.0471 18.0807C6.11436 18.1827 6.11434 18.3031 6.04552 18.3521Z" fill="#A1A4BC"/>
<path d="M6.63988 18.9802C6.57954 19.0484 6.45108 19.0299 6.3572 18.9369C6.26096 18.8461 6.23427 18.717 6.29456 18.6488C6.35579 18.5805 6.48493 18.5997 6.57953 18.692C6.67506 18.7828 6.70406 18.9126 6.63988 18.9802Z" fill="#A1A4BC"/>
<path d="M7.45936 19.3445C7.43269 19.4328 7.30909 19.4729 7.18453 19.4354C7.06002 19.3967 6.97875 19.2933 7.0038 19.2041C7.02957 19.1151 7.15388 19.0733 7.27928 19.1134C7.40366 19.1519 7.48513 19.2546 7.45936 19.3445Z" fill="#A1A4BC"/>
<path d="M8.3598 19.4121C8.36279 19.5051 8.25713 19.5823 8.12641 19.584C7.99492 19.587 7.88835 19.5118 7.88696 19.4202C7.88696 19.3262 7.99024 19.25 8.12177 19.2476C8.25249 19.2451 8.3598 19.3198 8.3598 19.4121Z" fill="#A1A4BC"/>
<path d="M9.19736 19.2662C9.21299 19.3568 9.12203 19.45 8.99216 19.4748C8.86447 19.4989 8.74638 19.4428 8.73003 19.3528C8.71422 19.2598 8.80666 19.1666 8.93426 19.1425C9.06431 19.1194 9.18079 19.1739 9.19736 19.2662Z" fill="#A1A4BC"/>
</svg>
