<svg width="24" height="24" viewBox="0 0 24 24" fill="none" xmlns="http://www.w3.org/2000/svg">
<path d="M23 5.13074C22.1912 5.49268 21.3208 5.73682 20.4076 5.84608C21.3401 5.28406 22.055 4.39382 22.3922 3.33182C21.52 3.85293 20.5545 4.23105 19.526 4.43518C18.703 3.55213 17.5298 3 16.2316 3C13.7392 3 11.7184 5.03452 11.7184 7.54429C11.7184 7.89994 11.7582 8.24659 11.8354 8.57976C8.08414 8.39002 4.75799 6.58121 2.53178 3.83179C2.14325 4.50262 1.92085 5.28316 1.92085 6.11675C1.92085 7.69311 2.71756 9.08423 3.92869 9.89894C3.18915 9.87511 2.49293 9.67053 1.88423 9.33017C1.88379 9.34905 1.88379 9.36839 1.88379 9.38772C1.88379 11.589 3.43968 13.4253 5.50468 13.8434C5.12598 13.9468 4.72718 14.0026 4.31543 14.0026C4.02426 14.0026 3.74157 13.9743 3.46603 13.9208C4.04078 15.726 5.70743 17.0402 7.68222 17.0766C6.13749 18.2955 4.19173 19.0221 2.07671 19.0221C1.71275 19.0221 1.35325 19.0005 1 18.9583C2.99801 20.2482 5.37026 21 7.9189 21C16.2213 21 20.7608 14.0759 20.7608 8.07079C20.7608 7.87386 20.7568 7.67737 20.7483 7.48224C21.6299 6.84288 22.3953 6.04211 23 5.13074Z" fill="#A1A4BC"/>
</svg>
